<svg width="199" height="65" viewBox="0 0 199 65" fill="none" xmlns="http://www.w3.org/2000/svg">
<rect width="199" height="65" rx="5" fill="#ABABAB"/>
<path d="M65.0391 38.2734C67.5547 38.2734 69.4062 36.7891 69.7188 34.5625H67.9766C67.6641 35.8359 66.5312 36.6406 65.0391 36.6406C63.0078 36.6406 61.7422 34.9922 61.7422 32.3672C61.7422 29.7344 63.0078 28.0859 65.0312 28.0859C66.5156 28.0859 67.6484 28.9766 67.9766 30.3594H69.7188C69.4375 28.0625 67.5156 26.4531 65.0312 26.4531C61.8984 26.4531 59.9531 28.7109 59.9531 32.3672C59.9531 36.0156 61.9062 38.2734 65.0391 38.2734ZM76.0619 38.1641C78.5463 38.1641 80.0697 36.5 80.0697 33.7422C80.0697 31 78.5384 29.3281 76.0619 29.3281C73.5775 29.3281 72.0463 31 72.0463 33.7422C72.0463 36.5 73.5697 38.1641 76.0619 38.1641ZM76.0619 36.6719C74.6009 36.6719 73.7806 35.6016 73.7806 33.7422C73.7806 31.8984 74.6009 30.8203 76.0619 30.8203C77.515 30.8203 78.3431 31.8984 78.3431 33.7422C78.3431 35.5938 77.515 36.6719 76.0619 36.6719ZM82.7331 38H84.4128V32.7969C84.4128 31.7031 85.1863 30.8672 86.2097 30.8672C87.2097 30.8672 87.8503 31.4531 87.8503 32.4141V38H89.4988V32.6484C89.4988 31.6484 90.2097 30.8672 91.2956 30.8672C92.3972 30.8672 92.9441 31.4297 92.9441 32.5781V38H94.6238V32.1406C94.6238 30.3672 93.6238 29.3281 91.905 29.3281C90.7253 29.3281 89.7488 29.9297 89.3191 30.8594H89.1863C88.8113 29.9297 88.0066 29.3281 86.8425 29.3281C85.7097 29.3281 84.8503 29.8984 84.4753 30.8594H84.3503V29.4922H82.7331V38ZM97.6544 38H99.3262V29.4922H97.6544V38ZM98.4903 28C99.1153 28 99.5762 27.5547 99.5762 26.9766C99.5762 26.3906 99.1153 25.9453 98.4903 25.9453C97.8653 25.9453 97.4044 26.3906 97.4044 26.9766C97.4044 27.5547 97.8653 28 98.4903 28ZM102.435 38H104.115V33.0234C104.115 31.6953 104.904 30.8672 106.146 30.8672C107.388 30.8672 107.982 31.5469 107.982 32.9141V38H109.662V32.4922C109.662 30.4688 108.615 29.3281 106.716 29.3281C105.435 29.3281 104.591 29.8984 104.177 30.8438H104.052V29.4922H102.435V38ZM116.231 36.4219C114.786 36.4219 113.973 35.3359 113.973 33.6406C113.973 31.9453 114.786 30.8594 116.231 30.8594C117.661 30.8594 118.536 31.9453 118.536 33.6406C118.536 35.3438 117.669 36.4219 116.231 36.4219ZM116.255 41.25C118.661 41.25 120.184 40.0156 120.184 38.0703V29.4922H118.575V30.8516H118.442C117.966 29.9297 116.942 29.3516 115.77 29.3516C113.598 29.3516 112.239 31.0547 112.239 33.6484C112.239 36.1953 113.583 37.875 115.755 37.875C116.927 37.875 117.864 37.3672 118.38 36.4453H118.505V38.0781C118.505 39.2031 117.677 39.8672 116.278 39.8672C115.145 39.8672 114.434 39.4688 114.294 38.8516H112.575C112.755 40.2969 114.13 41.25 116.255 41.25ZM128.082 31.8984C128.082 33.1641 128.832 33.8906 130.449 34.2734L131.933 34.6172C132.785 34.8203 133.183 35.1484 133.183 35.6562C133.183 36.3359 132.441 36.8047 131.394 36.8047C130.378 36.8047 129.753 36.3984 129.543 35.7422H127.863C128.011 37.25 129.332 38.1641 131.355 38.1641C133.386 38.1641 134.878 37.0938 134.878 35.4922C134.878 34.2422 134.121 33.5469 132.503 33.1719L131.089 32.8438C130.168 32.6328 129.738 32.3125 129.738 31.8047C129.738 31.1406 130.449 30.6953 131.386 30.6953C132.339 30.6953 132.949 31.0938 133.105 31.7188H134.714C134.55 30.2188 133.3 29.3281 131.386 29.3281C129.464 29.3281 128.082 30.3906 128.082 31.8984ZM141.136 38.1641C143.62 38.1641 145.143 36.5 145.143 33.7422C145.143 31 143.612 29.3281 141.136 29.3281C138.651 29.3281 137.12 31 137.12 33.7422C137.12 36.5 138.643 38.1641 141.136 38.1641ZM141.136 36.6719C139.675 36.6719 138.854 35.6016 138.854 33.7422C138.854 31.8984 139.675 30.8203 141.136 30.8203C142.589 30.8203 143.417 31.8984 143.417 33.7422C143.417 35.5938 142.589 36.6719 141.136 36.6719ZM151.401 38.1641C153.885 38.1641 155.408 36.5 155.408 33.7422C155.408 31 153.877 29.3281 151.401 29.3281C148.916 29.3281 147.385 31 147.385 33.7422C147.385 36.5 148.908 38.1641 151.401 38.1641ZM151.401 36.6719C149.94 36.6719 149.119 35.6016 149.119 33.7422C149.119 31.8984 149.94 30.8203 151.401 30.8203C152.854 30.8203 153.682 31.8984 153.682 33.7422C153.682 35.5938 152.854 36.6719 151.401 36.6719ZM158.072 38H159.752V33.0234C159.752 31.6953 160.541 30.8672 161.783 30.8672C163.025 30.8672 163.619 31.5469 163.619 32.9141V38H165.298V32.4922C165.298 30.4688 164.252 29.3281 162.353 29.3281C161.072 29.3281 160.228 29.8984 159.814 30.8438H159.689V29.4922H158.072V38Z" fill="white"/>
<path d="M24.6201 48.6986C19.9024 48.6714 16 39.041 16 34.1364C16 26.1248 22.01 24.3709 24.3263 24.3709C25.3701 24.3709 26.4847 24.7808 27.4678 25.1436C28.1553 25.3966 28.8662 25.6578 29.2617 25.6578C29.4984 25.6578 30.0561 25.4356 30.5486 25.2406C31.5988 24.8225 32.9056 24.3029 34.4274 24.3029C34.4301 24.3029 34.4337 24.3029 34.4364 24.3029C35.5727 24.3029 39.0181 24.5523 41.0895 27.663L41.5747 28.3921L40.8764 28.919C39.8788 29.6718 38.0586 31.0448 38.0586 33.7647C38.0586 36.986 40.12 38.2248 41.1103 38.8206C41.5475 39.0836 42 39.3548 42 39.9479C42 40.3352 38.9093 48.6506 34.421 48.6506C33.3227 48.6506 32.5464 48.3205 31.8617 48.0293C31.1688 47.7346 30.5712 47.4807 29.5835 47.4807C29.0829 47.4807 28.4499 47.7174 27.7797 47.9686C26.8638 48.3104 25.8272 48.6986 24.6509 48.6986H24.6201Z" fill="white"/>
<path d="M34.9034 15C35.0203 19.2147 32.0061 22.1386 28.9955 21.9553C28.4994 18.5918 32.0058 15 34.9034 15Z" fill="white"/>
</svg>
