<svg width="13" height="24" viewBox="0 0 13 24" fill="none" xmlns="http://www.w3.org/2000/svg">
<path d="M11.5332 13.8125H8.16406V23.875H3.67188V13.8125H0.0332031V9.63477H3.67188V6.49023C3.67188 5.29232 3.89648 4.27409 4.3457 3.43555C4.79492 2.59701 5.42383 1.9681 6.23242 1.54883C7.07096 1.09961 8.0293 0.875 9.10742 0.875C9.58659 0.875 10.0957 0.904948 10.6348 0.964844C11.1738 0.994792 11.5931 1.03971 11.8926 1.09961L12.3418 1.14453V4.69336H10.5449C9.70638 4.69336 9.09245 4.91797 8.70312 5.36719C8.34375 5.78646 8.16406 6.31055 8.16406 6.93945V9.63477H12.1621L11.5332 13.8125Z" fill="#0657CD"/>
</svg>
