<svg width="149" height="45" viewBox="0 0 149 45" fill="none" xmlns="http://www.w3.org/2000/svg">
<path fill-rule="evenodd" clip-rule="evenodd" d="M49.6887 2.12695C50.3749 2.12695 51.061 2.21708 51.6875 2.42738V11.5002C51.6875 12.1913 51.5085 12.702 51.1505 13.0925C50.8224 13.453 50.345 13.6333 49.7484 13.6333C49.1517 13.6333 48.6745 13.453 48.2866 13.0925C47.9287 12.732 47.7198 12.1612 47.7198 11.3801V10.2685L46.1089 10.629V11.3801C46.1089 11.9509 46.1685 12.4616 46.3475 12.9423C46.5265 13.393 46.7652 13.7835 47.0635 14.144C47.2723 14.3543 47.5408 14.5646 47.8093 14.7148C45.1841 13.9037 43.3047 11.4402 43.3047 8.55609C43.3047 5.01105 46.1685 2.12695 49.6887 2.12695Z" fill="#FEFEFE"/>
<path d="M54.3723 12.5217V5.01099H53.5668V12.9423C53.4475 13.1526 53.2387 13.3328 53 13.3929L53.2983 14.0538C53.9248 13.8435 54.3723 13.2427 54.3723 12.5217Z" fill="#FEFEFE"/>
<path d="M55.0293 12.942V8.2854H55.8645V12.942H55.0293Z" fill="#FEFEFE"/>
<path fill-rule="evenodd" clip-rule="evenodd" d="M0.615296 27.7533L53.239 21.1439L53.3584 16.8478V16.8779C53.2987 16.9078 53.239 16.9379 53.1794 16.9379L53.1495 16.968C53.0899 16.998 53.0303 16.998 52.9408 17.028C52.881 17.0581 52.8214 17.0882 52.7618 17.1181H52.7319C52.6723 17.1482 52.6126 17.1783 52.5529 17.1783L52.5231 17.2083C52.4336 17.2083 52.3739 17.2383 52.3143 17.2684C52.2546 17.2985 52.1651 17.2985 52.1054 17.3284H52.0756C52.0159 17.3585 51.9563 17.3585 51.8966 17.3886H51.8667C51.8071 17.4186 51.7176 17.4186 51.658 17.4486H51.6281C51.5685 17.4486 51.5088 17.4787 51.4193 17.4787C51.3596 17.5088 51.3 17.5088 51.2105 17.5387H51.1806C51.121 17.5387 51.0613 17.5688 51.0016 17.5688H50.9718C50.8823 17.5989 50.8227 17.5989 50.763 17.5989H50.7332C50.6735 17.6289 50.584 17.6289 50.5243 17.6289C50.4348 17.6289 50.3752 17.6589 50.2857 17.6589H50.2558C50.1962 17.6589 50.1366 17.6589 50.0471 17.6589C49.9576 17.6589 49.8978 17.689 49.8382 17.689H49.8083C49.7188 17.689 49.6592 17.689 49.5697 17.689C44.4983 17.689 40.3814 13.5431 40.3814 8.40582C40.3814 8.34571 40.3814 8.25559 40.3814 8.19551V8.16546C40.3814 8.10537 40.3814 8.01525 40.3814 7.95516V7.89508C40.3814 7.83499 40.3814 7.77491 40.3814 7.71482V7.68478C40.4113 7.59465 40.4113 7.53457 40.4113 7.47448V7.44444C40.4113 7.38435 40.4411 7.32426 40.4411 7.23414V7.2041C40.4411 7.14401 40.4709 7.08393 40.4709 7.02384V6.99379C40.5008 6.90367 40.5008 6.84358 40.5008 6.7835V6.75346C40.5306 6.69337 40.5306 6.63328 40.5604 6.54316C40.5604 6.45303 40.5903 6.39295 40.5903 6.33285L40.6201 6.30281C40.6201 6.24273 40.6499 6.18264 40.6499 6.12256L40.6798 6.06248L40.7096 5.88222V5.85217C40.7394 5.79209 40.7692 5.73201 40.7692 5.67192L40.7991 5.64187C40.7991 5.58179 40.8289 5.5217 40.8587 5.46162V5.40154L40.9184 5.25132L40.9482 5.19124C40.9482 5.16119 40.9781 5.10111 41.0079 5.04103V4.98094L41.0676 4.83072L41.0974 4.77064L41.1571 4.62043L41.1869 4.56034L41.2466 4.44017L41.3062 4.35004L41.3361 4.22987L41.3957 4.13974L41.4554 4.04962L41.5151 3.92945L41.5747 3.83931L41.6046 3.74919L41.6642 3.65906L41.7537 3.53889L41.7836 3.4788L41.8432 3.35863L41.9028 3.29855L41.9625 3.17837H41.9924L42.0222 3.08825L42.0819 2.99812L42.1415 2.93804L42.1714 2.908L42.2609 2.78782L42.2907 2.75778L42.3802 2.63761V2.60757L42.4399 2.54749L42.4995 2.45735L11.7426 0.534624L11.3846 0.504581C8.96826 0.354367 6.5817 0.174111 4.16531 0.0238981C1.86824 -0.126315 -0.220002 0.26424 0.0186543 6.18264L0.615296 27.7533Z" fill="#ABABAB"/>
<path fill-rule="evenodd" clip-rule="evenodd" d="M7.05963 44.9677C5.62769 45.238 2.04784 43.796 1.86885 41.1222L1.12305 30.6974L53.2099 23.3069C53.2099 26.4914 53.0309 31.5686 50.1073 32.4098L7.05963 44.9677Z" fill="#ABABAB"/>
<path d="M49.5703 15.3158C53.3597 15.3158 56.4317 12.2221 56.4317 8.40594C56.4317 4.58972 53.3597 1.49609 49.5703 1.49609C45.7809 1.49609 42.709 4.58972 42.709 8.40594C42.709 12.2221 45.7809 15.3158 49.5703 15.3158Z" fill="#ABABAB"/>
<path d="M145.42 19.822C145.391 18.5602 144.944 17.4786 144.138 16.6074C143.332 15.7362 142.169 15.2856 140.587 15.2856C139.872 15.2856 139.216 15.4357 138.649 15.6761C138.082 15.9465 137.575 16.2769 137.187 16.7276C135.457 18.5301 135.248 22.616 136.143 24.809C136.411 25.47 136.77 26.0408 137.246 26.5215C137.724 27.0022 138.291 27.3626 138.947 27.603C139.574 27.8735 140.26 27.9936 141.005 27.9936C142.437 27.9936 143.541 27.6631 144.287 26.9721C144.496 26.7618 144.705 26.5515 144.884 26.3412V30.1566C144.555 30.3369 144.198 30.4871 143.81 30.6073C142.975 30.9077 142.02 31.058 141.005 31.058C139.842 31.058 138.709 30.8477 137.635 30.4271C136.561 30.0065 135.636 29.4056 134.801 28.5945C133.995 27.7832 133.338 26.7919 132.861 25.6202C132.384 24.4185 132.146 23.0966 132.146 21.5945C132.146 20.1825 132.384 18.9207 132.861 17.779C133.309 16.6374 133.935 15.646 134.681 14.8349C135.457 14.0238 136.352 13.3628 137.396 12.9122C138.41 12.4615 139.454 12.2512 140.558 12.2512C141.9 12.2512 143.094 12.4615 144.168 12.9122C145.241 13.3628 146.106 13.9937 146.823 14.8048C147.539 15.616 148.075 16.6074 148.434 17.7491C148.821 18.8907 149 20.1524 149 21.5043C149 21.7447 149 21.955 149 22.1352C148.97 22.3455 148.97 22.4958 148.941 22.616H140.946V19.822H145.42Z" fill="#ABABAB"/>
<path d="M62.1289 21.0537L65.7983 20.2425V22.7662C65.7983 24.5387 66.2159 25.8305 67.0512 26.6416C67.9164 27.4828 69.0201 27.8734 70.3626 27.8734C71.7051 27.8734 72.7491 27.4528 73.5248 26.6116C74.3004 25.7704 74.6883 24.5687 74.6883 23.0365V4.04956H78.3576V22.7662C78.3576 23.9378 78.1786 25.0494 77.8206 26.0709C77.4626 27.0923 76.9256 27.9936 76.2395 28.7747C75.5236 29.5558 74.6883 30.1867 73.7038 30.6373C72.7194 31.088 71.6156 31.2983 70.3924 31.2983C69.1096 31.2983 67.9462 31.118 66.9021 30.6974C65.8878 30.3069 65.0227 29.736 64.3067 28.9849C63.6206 28.2339 63.0537 27.3327 62.6957 26.2812C62.308 25.2297 62.1289 24.088 62.1289 22.7962V21.0537Z" fill="#ABABAB"/>
<path d="M81.6389 30.7276V12.6419H85.1293V30.7276H81.6389ZM80.8633 5.79217C80.8633 5.0411 81.1019 4.44025 81.609 3.95956C82.0864 3.44884 82.683 3.2085 83.3692 3.2085C84.085 3.2085 84.7112 3.44884 85.189 3.95956C85.6659 4.44025 85.9048 5.0411 85.9048 5.79217C85.9048 6.48315 85.6659 7.084 85.189 7.56469C84.7112 8.04537 84.085 8.28571 83.3692 8.28571C82.683 8.28571 82.0864 8.04537 81.609 7.56469C81.1019 7.084 80.8633 6.48315 80.8633 5.79217Z" fill="#ABABAB"/>
<path d="M90.5291 30.938C90.6486 32.1998 91.1562 33.2814 92.0213 34.1226C92.9162 34.9637 94.0492 35.3843 95.4219 35.3843C97.3014 35.3843 98.7031 34.8736 99.5682 33.9123C100.463 32.9208 100.911 31.4487 100.911 29.4959V26.9123C100.493 27.7235 99.8071 28.4445 98.8524 29.0153C97.8978 29.5861 96.7639 29.8866 95.4219 29.8866C94.2284 29.8866 93.1244 29.6462 92.11 29.2256C91.0965 28.7749 90.2314 28.1741 89.4849 27.4231C88.7392 26.6419 88.1727 25.7106 87.7547 24.6291C87.3674 23.5776 87.1584 22.3758 87.1584 21.1141C87.1584 19.8823 87.3375 18.7107 87.7547 17.6591C88.1429 16.5777 88.7094 15.6763 89.4252 14.8652C90.1418 14.0841 91.0069 13.4532 92.0213 13.0025C93.0348 12.5219 94.1687 12.2815 95.4219 12.2815C96.8237 12.2815 97.9575 12.5519 98.8823 13.0326C99.8071 13.5433 100.493 14.2643 100.941 15.1656V12.642H104.431V29.3758C104.431 30.5474 104.282 31.659 103.983 32.7707C103.686 33.8521 103.178 34.8135 102.462 35.6547C101.746 36.496 100.822 37.1869 99.6877 37.6976C98.524 38.2084 97.1223 38.4487 95.4219 38.4487C94.2881 38.4487 93.2439 38.2985 92.2892 37.968C91.3345 37.6075 90.4694 37.1568 89.7536 36.556C89.008 35.9251 88.4116 35.2341 87.9637 34.423C87.4868 33.6119 87.2181 32.7105 87.0986 31.7191L90.5291 30.938ZM95.9287 26.9123C97.4507 26.9123 98.7031 26.3716 99.628 25.3201C100.583 24.2685 101.06 22.8566 101.06 21.1141C101.06 19.3416 100.583 17.9296 99.628 16.8781C98.7031 15.8266 97.4507 15.3158 95.9287 15.3158C94.3777 15.3158 93.0946 15.8266 92.1697 16.8781C91.2151 17.9296 90.7382 19.3416 90.7382 21.1141C90.7382 22.8865 91.2151 24.2986 92.1399 25.3501C93.0647 26.3716 94.3478 26.9123 95.9287 26.9123Z" fill="#ABABAB"/>
<path d="M109.443 30.938C109.562 32.1998 110.069 33.2814 110.964 34.1226C111.829 34.9637 112.963 35.3843 114.335 35.3843C116.245 35.3843 117.617 34.8736 118.512 33.9123C119.377 32.9208 119.825 31.4487 119.825 29.4959V26.9123C119.407 27.7235 118.721 28.4445 117.766 29.0153C116.841 29.5861 115.677 29.8866 114.335 29.8866C113.142 29.8866 112.038 29.6462 111.024 29.2256C110.009 28.7749 109.144 28.1741 108.398 27.4231C107.683 26.6419 107.116 25.7106 106.698 24.6291C106.281 23.5776 106.072 22.3758 106.072 21.1141C106.072 19.8823 106.281 18.7107 106.668 17.6591C107.056 16.5777 107.623 15.6763 108.339 14.8652C109.084 14.0841 109.95 13.4532 110.964 13.0025C111.948 12.5219 113.082 12.2815 114.335 12.2815C115.737 12.2815 116.901 12.5519 117.826 13.0326C118.75 13.5433 119.407 14.2643 119.884 15.1656V12.642H123.345V29.3758C123.345 30.5474 123.195 31.659 122.897 32.7707C122.599 33.8521 122.091 34.8135 121.376 35.6547C120.66 36.496 119.735 37.1869 118.601 37.6976C117.437 38.2084 116.036 38.4487 114.335 38.4487C113.202 38.4487 112.187 38.2985 111.203 37.968C110.248 37.6075 109.413 37.1568 108.667 36.556C107.921 35.9251 107.324 35.2341 106.877 34.423C106.429 33.6119 106.132 32.7105 106.042 31.7191L109.443 30.938ZM114.872 26.9123C116.393 26.9123 117.617 26.3716 118.571 25.3201C119.496 24.2685 119.973 22.8566 119.973 21.1141C119.973 19.3416 119.496 17.9296 118.571 16.8781C117.617 15.8266 116.393 15.3158 114.872 15.3158C113.291 15.3158 112.038 15.8266 111.083 16.8781C110.129 17.9296 109.652 19.3416 109.652 21.1141C109.652 22.8865 110.129 24.2986 111.053 25.3501C112.008 26.3716 113.261 26.9123 114.872 26.9123Z" fill="#ABABAB"/>
<path d="M126.269 30.7275V3.47876H129.789V30.7275H126.269Z" fill="#ABABAB"/>
</svg>
