<svg width="180" height="54" viewBox="0 0 180 54" fill="none" xmlns="http://www.w3.org/2000/svg">
<path fill-rule="evenodd" clip-rule="evenodd" d="M59.9076 2.54663C60.7349 2.54663 61.5621 2.65454 62.3174 2.90634V13.7695C62.3174 14.5969 62.1016 15.2084 61.67 15.676C61.2744 16.1076 60.6989 16.3235 59.9796 16.3235C59.2602 16.3235 58.6848 16.1076 58.2172 15.676C57.7856 15.2443 57.5338 14.5609 57.5338 13.6257V12.2947L55.5916 12.7264V13.6257C55.5916 14.3091 55.6635 14.9206 55.8793 15.4961C56.0951 16.0357 56.3829 16.5033 56.7425 16.935C56.9943 17.1868 57.318 17.4386 57.6417 17.6184C54.4766 16.6472 52.2107 13.6976 52.2107 10.2444C52.2107 5.99983 55.6635 2.54663 59.9076 2.54663Z" fill="#FEFEFE"/>
<path d="M65.5546 14.9925V5.99976H64.5835V15.4961C64.4396 15.7479 64.1879 15.9637 63.9001 16.0356L64.2598 16.827C65.0151 16.5752 65.5546 15.8558 65.5546 14.9925Z" fill="#FEFEFE"/>
<path d="M66.3455 15.4959V9.92041H67.3525V15.4959H66.3455Z" fill="#FEFEFE"/>
<path fill-rule="evenodd" clip-rule="evenodd" d="M0.741832 33.2297L64.1877 25.3161L64.3316 20.1723V20.2083C64.2597 20.2442 64.1877 20.2802 64.1158 20.2802L64.0798 20.3162C64.0079 20.3521 63.936 20.3521 63.8281 20.3881C63.7561 20.4241 63.6842 20.4601 63.6123 20.496H63.5763C63.5044 20.532 63.4324 20.568 63.3605 20.568L63.3245 20.6039C63.2166 20.6039 63.1447 20.6399 63.0728 20.6759C63.0008 20.7119 62.8929 20.7119 62.821 20.7478H62.785C62.7131 20.7838 62.6412 20.7838 62.5692 20.8198H62.5332C62.4613 20.8557 62.3534 20.8557 62.2815 20.8917H62.2455C62.1736 20.8917 62.1016 20.9277 61.9937 20.9277C61.9218 20.9637 61.8499 20.9637 61.742 20.9996H61.706C61.6341 20.9996 61.5621 21.0356 61.4902 21.0356H61.4542C61.3463 21.0716 61.2744 21.0716 61.2025 21.0716H61.1665C61.0946 21.1075 60.9867 21.1075 60.9147 21.1075C60.8068 21.1075 60.7349 21.1435 60.627 21.1435H60.591C60.5191 21.1435 60.4472 21.1435 60.3393 21.1435C60.2314 21.1435 60.1594 21.1795 60.0875 21.1795H60.0515C59.9436 21.1795 59.8717 21.1795 59.7638 21.1795C53.6494 21.1795 48.6859 16.2155 48.6859 10.0645C48.6859 9.99254 48.6859 9.88463 48.6859 9.81269V9.77672C48.6859 9.70477 48.6859 9.59686 48.6859 9.52492V9.45298C48.6859 9.38104 48.6859 9.3091 48.6859 9.23715V9.20118C48.7219 9.09327 48.7219 9.02133 48.7219 8.94939V8.91342C48.7219 8.84147 48.7579 8.76953 48.7579 8.66162V8.62565C48.7579 8.55371 48.7938 8.48177 48.7938 8.40982V8.37385C48.8298 8.26594 48.8298 8.194 48.8298 8.12206V8.08609C48.8658 8.01414 48.8658 7.9422 48.9017 7.83429C48.9017 7.72638 48.9377 7.65444 48.9377 7.58249L48.9737 7.54652C48.9737 7.47458 49.0096 7.40264 49.0096 7.3307L49.0456 7.25876L49.0816 7.04293V7.00696C49.1175 6.93502 49.1535 6.86308 49.1535 6.79114L49.1895 6.75516C49.1895 6.68322 49.2254 6.61128 49.2614 6.53934V6.4674L49.3333 6.28754L49.3693 6.2156C49.3693 6.17963 49.4053 6.10769 49.4412 6.03575V5.96381L49.5132 5.78395L49.5491 5.71201L49.6211 5.53216L49.657 5.46021L49.729 5.31633L49.8009 5.20842L49.8369 5.06453L49.9088 4.95662L49.9807 4.84871L50.0527 4.70483L50.1246 4.59691L50.1606 4.489L50.2325 4.38109L50.3404 4.2372L50.3764 4.16526L50.4483 4.02138L50.5202 3.94944L50.5922 3.80555H50.6282L50.6641 3.69764L50.7361 3.58973L50.808 3.51779L50.844 3.48182L50.9519 3.33793L50.9878 3.30196L51.0957 3.15808V3.12211L51.1677 3.05017L51.2396 2.94225L14.1575 0.640119L13.7259 0.604148C10.8126 0.424293 7.93524 0.208468 5.02191 0.0286139C2.25245 -0.15124 -0.265246 0.316381 0.0224906 7.40264L0.741832 33.2297Z" fill="#0657CD"/>
<path fill-rule="evenodd" clip-rule="evenodd" d="M8.51072 53.841C6.7843 54.1647 2.46825 52.4381 2.25245 49.2367L1.35327 36.7548L64.1518 27.906C64.1518 31.7189 63.936 37.798 60.4112 38.8052L8.51072 53.841Z" fill="#1068F0"/>
<path d="M59.7639 18.3379C64.3326 18.3379 68.0363 14.6338 68.0363 10.0646C68.0363 5.49534 64.3326 1.79126 59.7639 1.79126C55.1951 1.79126 51.4915 5.49534 51.4915 10.0646C51.4915 14.6338 55.1951 18.3379 59.7639 18.3379Z" fill="#0657CD"/>
<path d="M175.326 23.7334C175.29 22.2226 174.751 20.9276 173.78 19.8845C172.808 18.8413 171.406 18.3018 169.499 18.3018C168.636 18.3018 167.845 18.4816 167.162 18.7694C166.478 19.0931 165.867 19.4888 165.399 20.0284C163.313 22.1866 163.061 27.0787 164.14 29.7045C164.464 30.4959 164.896 31.1793 165.471 31.7549C166.047 32.3304 166.73 32.762 167.521 33.0498C168.277 33.3736 169.104 33.5174 170.003 33.5174C171.729 33.5174 173.06 33.1218 173.959 32.2944C174.211 32.0426 174.463 31.7908 174.679 31.539V36.1073C174.283 36.3232 173.852 36.503 173.384 36.6469C172.377 37.0066 171.226 37.1865 170.003 37.1865C168.6 37.1865 167.234 36.9347 165.939 36.4311C164.644 35.9275 163.529 35.2081 162.522 34.2369C161.551 33.2656 160.759 32.0786 160.184 30.6757C159.609 29.2369 159.321 27.6542 159.321 25.8556C159.321 24.165 159.609 22.6542 160.184 21.2873C160.724 19.9204 161.479 18.7334 162.378 17.7622C163.313 16.791 164.392 15.9996 165.651 15.4601C166.874 14.9205 168.133 14.6687 169.464 14.6687C171.082 14.6687 172.521 14.9205 173.816 15.4601C175.11 15.9996 176.153 16.755 177.017 17.7262C177.88 18.6974 178.527 19.8845 178.959 21.2514C179.426 22.6183 179.642 24.129 179.642 25.7477C179.642 26.0355 179.642 26.2873 179.642 26.5031C179.606 26.7549 179.606 26.9348 179.57 27.0787H169.931V23.7334H175.326Z" fill="#2D3448"/>
<path d="M74.9062 25.2081L79.3302 24.2369V27.2585C79.3302 29.3808 79.8337 30.9275 80.8408 31.8987C81.8839 32.9059 83.2146 33.3735 84.8332 33.3735C86.4517 33.3735 87.7105 32.8699 88.6457 31.8628C89.5808 30.8556 90.0484 29.4167 90.0484 27.5822V4.84863H94.4723V27.2585C94.4723 28.6613 94.2565 29.9923 93.8249 31.2153C93.3933 32.4383 92.7459 33.5174 91.9187 34.4527C91.0555 35.3879 90.0484 36.1433 88.8615 36.6828C87.6746 37.2224 86.3438 37.4742 84.8691 37.4742C83.3225 37.4742 81.9198 37.2584 80.661 36.7548C79.4381 36.2872 78.3951 35.6037 77.5318 34.7044C76.7046 33.8052 76.0212 32.7261 75.5896 31.4671C75.1221 30.2081 74.9062 28.8412 74.9062 27.2945V25.2081Z" fill="#2D3448"/>
<path d="M98.4288 36.7909V15.1364H102.637V36.7909H98.4288ZM97.4937 6.93505C97.4937 6.03578 97.7814 5.31636 98.3928 4.74082C98.9683 4.12932 99.6876 3.84155 100.515 3.84155C101.378 3.84155 102.133 4.12932 102.709 4.74082C103.284 5.31636 103.572 6.03578 103.572 6.93505C103.572 7.76238 103.284 8.48179 102.709 9.05733C102.133 9.63286 101.378 9.92063 100.515 9.92063C99.6876 9.92063 98.9683 9.63286 98.3928 9.05733C97.7814 8.48179 97.4937 7.76238 97.4937 6.93505Z" fill="#2D3448"/>
<path d="M109.147 37.0427C109.291 38.5535 109.903 39.8485 110.946 40.8557C112.025 41.8628 113.391 42.3664 115.046 42.3664C117.312 42.3664 119.002 41.7549 120.045 40.6039C121.124 39.4168 121.664 37.6542 121.664 35.3161V32.2226C121.16 33.1939 120.333 34.0572 119.182 34.7406C118.031 35.4241 116.664 35.7838 115.046 35.7838C113.607 35.7838 112.276 35.496 111.053 34.9924C109.831 34.4528 108.788 33.7334 107.888 32.8342C106.989 31.8989 106.306 30.7838 105.802 29.4889C105.335 28.2299 105.083 26.791 105.083 25.2803C105.083 23.8055 105.299 22.4026 105.802 21.1436C106.27 19.8487 106.953 18.7695 107.816 17.7983C108.68 16.8631 109.723 16.1077 110.946 15.5681C112.168 14.9926 113.535 14.7048 115.046 14.7048C116.736 14.7048 118.103 15.0286 119.218 15.6041C120.333 16.2156 121.16 17.0789 121.7 18.158V15.1365H125.908V35.1723C125.908 36.5751 125.728 37.906 125.368 39.237C125.009 40.5319 124.397 41.683 123.534 42.6902C122.671 43.6974 121.556 44.5247 120.189 45.1362C118.786 45.7477 117.096 46.0355 115.046 46.0355C113.679 46.0355 112.42 45.8556 111.269 45.4599C110.118 45.0283 109.075 44.4887 108.212 43.7693C107.313 43.0139 106.594 42.1866 106.054 41.2154C105.479 40.2442 105.155 39.165 105.011 37.978L109.147 37.0427ZM115.657 32.2226C117.492 32.2226 119.002 31.5752 120.117 30.3162C121.268 29.0572 121.844 27.3666 121.844 25.2803C121.844 23.158 121.268 21.4674 120.117 20.2084C119.002 18.9494 117.492 18.3379 115.657 18.3379C113.787 18.3379 112.24 18.9494 111.125 20.2084C109.974 21.4674 109.399 23.158 109.399 25.2803C109.399 27.4025 109.974 29.0932 111.089 30.3522C112.204 31.5752 113.751 32.2226 115.657 32.2226Z" fill="#2D3448"/>
<path d="M131.95 37.0427C132.094 38.5535 132.705 39.8485 133.784 40.8557C134.827 41.8628 136.194 42.3664 137.849 42.3664C140.151 42.3664 141.805 41.7549 142.884 40.6039C143.927 39.4168 144.467 37.6542 144.467 35.3161V32.2226C143.963 33.1939 143.136 34.0572 141.985 34.7406C140.87 35.4241 139.467 35.7838 137.849 35.7838C136.41 35.7838 135.079 35.496 133.856 34.9924C132.633 34.4528 131.59 33.7334 130.691 32.8342C129.828 31.8989 129.145 30.7838 128.641 29.4889C128.138 28.2299 127.886 26.791 127.886 25.2803C127.886 23.8055 128.138 22.4026 128.605 21.1436C129.073 19.8487 129.756 18.7695 130.619 17.7983C131.518 16.8631 132.562 16.1077 133.784 15.5681C134.971 14.9926 136.338 14.7048 137.849 14.7048C139.539 14.7048 140.942 15.0286 142.057 15.6041C143.172 16.2156 143.963 17.0789 144.539 18.158V15.1365H148.711V35.1723C148.711 36.5751 148.531 37.906 148.171 39.237C147.812 40.5319 147.2 41.683 146.337 42.6902C145.474 43.6974 144.359 44.5247 142.992 45.1362C141.589 45.7477 139.899 46.0355 137.849 46.0355C136.482 46.0355 135.259 45.8556 134.072 45.4599C132.921 45.0283 131.914 44.4887 131.015 43.7693C130.116 43.0139 129.396 42.1866 128.857 41.2154C128.317 40.2442 127.958 39.165 127.85 37.978L131.95 37.0427ZM138.496 32.2226C140.33 32.2226 141.805 31.5752 142.956 30.3162C144.071 29.0572 144.646 27.3666 144.646 25.2803C144.646 23.158 144.071 21.4674 142.956 20.2084C141.805 18.9494 140.33 18.3379 138.496 18.3379C136.59 18.3379 135.079 18.9494 133.928 20.2084C132.777 21.4674 132.202 23.158 132.202 25.2803C132.202 27.4025 132.777 29.0932 133.892 30.3522C135.043 31.5752 136.554 32.2226 138.496 32.2226Z" fill="#2D3448"/>
<path d="M152.236 36.7909V4.16528H156.48V36.7909H152.236Z" fill="#2D3448"/>
</svg>
