<svg width="21" height="21" viewBox="0 0 21 21" fill="none" xmlns="http://www.w3.org/2000/svg">
<path d="M4.49219 21H0.314453V7.56836H4.49219V21ZM2.42578 5.72656C1.76693 5.72656 1.19792 5.48698 0.71875 5.00781C0.239583 4.52865 0 3.95964 0 3.30078C0 2.64193 0.239583 2.07292 0.71875 1.59375C1.19792 1.11458 1.76693 0.875 2.42578 0.875C2.84505 0.875 3.23438 0.979818 3.59375 1.18945C3.98307 1.39909 4.28255 1.69857 4.49219 2.08789C4.73177 2.44727 4.85156 2.85156 4.85156 3.30078C4.85156 3.72005 4.73177 4.12435 4.49219 4.51367C4.28255 4.87305 3.98307 5.17253 3.59375 5.41211C3.23438 5.62174 2.84505 5.72656 2.42578 5.72656ZM20.125 21H15.9473V14.4414C15.9473 13.9323 15.9323 13.528 15.9023 13.2285C15.8724 12.8991 15.7975 12.5397 15.6777 12.1504C15.5579 11.7311 15.3333 11.4167 15.0039 11.207C14.7044 10.9974 14.3001 10.8926 13.791 10.8926C12.8027 10.8926 12.1289 11.207 11.7695 11.8359C11.4401 12.4648 11.2754 13.3034 11.2754 14.3516V21H7.09766V7.56836H11.1406V9.41016H11.1855C11.485 8.8112 11.9792 8.30208 12.668 7.88281C13.3568 7.43359 14.1803 7.20898 15.1387 7.20898C16.1569 7.20898 16.9954 7.3737 17.6543 7.70312C18.3431 8.0026 18.8522 8.4668 19.1816 9.0957C19.541 9.69466 19.7806 10.3535 19.9004 11.0723C20.0501 11.791 20.125 12.6445 20.125 13.6328V21Z" fill="#0657CD"/>
</svg>
