<svg width="115" height="115" viewBox="0 0 115 115" fill="none" xmlns="http://www.w3.org/2000/svg">
<circle cx="57.5" cy="57.5" r="57.5" fill="#D8E8FF"/>
<path d="M83.1135 69.4461C81.2251 67.0504 78.2951 65.6208 75.274 65.6208H71.4558C70.3808 65.6208 69.5098 66.5601 69.5098 67.7194C69.5098 68.8786 70.3808 69.818 71.4558 69.818H75.274C77.1391 69.818 79.0073 70.717 80.1485 72.165C80.7362 72.9104 81.3854 74.1419 81.1457 75.7267L80.3797 80.1371C79.1381 86.1869 76.4276 86.8862 74.4956 86.8862H49.9831C47.2827 86.8862 45.3016 84.6054 44.0951 80.1061L43.3205 75.6571C43.0247 74.2284 43.5945 73.0792 44.1231 72.3665C45.2565 70.8429 47.2983 69.818 49.2046 69.818H52.9177C53.9927 69.818 54.8638 68.8786 54.8638 67.7194C54.8638 66.5601 53.9927 65.6208 52.9177 65.6208H49.2046C46.0863 65.6208 42.9757 67.1998 41.0857 69.7416C39.5833 71.7621 39.0275 74.1872 39.5078 76.5007L40.2862 80.9774C40.2971 81.0404 40.3104 81.1033 40.3275 81.1663C42.0182 87.5611 45.4472 91.0833 49.9831 91.0833H74.4956C77.9736 91.0833 82.4768 89.3415 84.1924 80.9774L84.9794 76.4512C85.3577 73.9413 84.696 71.454 83.1135 69.4461ZM47.577 50.6302C48.3842 52.8631 50.3334 58.0625 51.8046 60.4423C51.9167 60.6236 52.0326 60.8343 52.1619 61.0652C53.303 63.1117 55.6772 67.371 62.2144 67.371C68.7508 67.371 71.125 63.1134 72.2662 61.0669C72.3946 60.836 72.5114 60.6245 72.6243 60.4423C74.0955 58.0625 76.0447 52.8631 76.8519 50.6302C78.1752 50.0199 79.1054 48.6021 79.1054 46.9543V43.1626C79.1054 41.7288 78.4017 40.4697 77.347 39.7646V38.4223C77.347 29.3917 71.6902 24 62.2152 24C52.7402 24 47.0834 29.3917 47.0834 38.4223V39.7839C46.0365 40.4991 45.325 41.7599 45.325 43.1618V46.9535C45.3242 48.6021 46.2536 50.0199 47.577 50.6302ZM49.2163 43.3557C50.2034 43.2541 50.9748 42.3576 50.9748 41.2671V38.4231C50.9748 33.7584 52.9247 28.198 62.2144 28.198C69.5674 28.198 73.4541 31.7337 73.4541 38.4231V41.2671C73.4541 42.3576 74.2255 43.2541 75.2125 43.3557V46.7629C74.4792 46.8393 73.8409 47.3598 73.5778 48.1144C72.8664 50.1609 70.7257 55.9463 69.3852 58.1146C69.2428 58.3437 69.0933 58.6115 68.9299 58.9037C67.8697 60.8066 66.5487 63.1738 62.2136 63.1738C57.8778 63.1738 56.5568 60.8058 55.4966 58.9028C55.3332 58.6098 55.1845 58.3437 55.042 58.1146C53.7031 55.948 51.5617 50.1609 50.8494 48.1144C50.5863 47.3598 49.9488 46.8385 49.2148 46.7629V43.3557H49.2163ZM43.688 57.5261C43.688 56.3669 42.8169 55.4276 41.7419 55.4276H32.79V45.7741C32.79 44.6148 31.919 43.6755 30.844 43.6755C29.769 43.6755 28.8979 44.6148 28.8979 45.7741V55.4276H19.9461C18.8711 55.4276 18 56.3669 18 57.5261C18 58.6854 18.8711 59.6247 19.9461 59.6247H28.8979V69.2782C28.8979 70.4375 29.769 71.3768 30.844 71.3768C31.919 71.3768 32.79 70.4375 32.79 69.2782V59.6247H41.7419C42.8169 59.6247 43.688 58.6854 43.688 57.5261Z" fill="#0657CD"/>
</svg>
