<svg width="173" height="297" viewBox="0 0 173 297" fill="none" xmlns="http://www.w3.org/2000/svg">
<path d="M151.215 63.4236V29.4215L158.351 27.7424C165.068 26.0633 167.586 35.2984 165.068 39.9159L151.215 63.4236Z" fill="#B86928"/>
<path d="M59.7035 171.727L52.1475 180.962L105.879 212.445L114.695 197.753L59.7035 171.727Z" fill="#B86928"/>
<path d="M116.374 195.234L113.436 199.852L59.7039 171.727L50.4688 133.527C50.4688 133.527 59.7039 104.562 50.4688 65.5225C51.0058 63.9388 66.4212 64.6829 72.717 75.1775V123.872L111.337 75.1775L172.625 115.476C156.5 159.305 154.155 175.505 128.968 187.678L116.374 195.234Z" fill="#B86928"/>
<path d="M167.167 68.0416C169.266 63.0037 162.13 53.3484 152.475 59.6456L149.536 155.355L172.624 115.476C172.13 108.233 170.571 105.401 162.549 105.401L170.945 90.7091C173.883 84.4125 168.426 77.2762 161.71 78.5359L167.167 68.0416Z" fill="#B86928"/>
<path d="M39.9011 191.96C29.5745 208.499 29.8264 208.08 31.0018 208.835C31.5055 209.171 28.0633 215.468 22.3543 224.787C17.0651 233.266 12.8673 240.487 13.1192 240.822C13.2871 241.158 16.6453 243.341 20.4233 245.692C24.2853 248.043 27.8954 250.309 28.4831 250.729C29.3226 251.317 29.2387 252.072 27.8114 254.423C26.804 256.27 26.3002 258.033 26.6361 258.957C26.9719 259.88 26.9719 260.3 26.6361 259.964C26.2163 259.628 25.2088 260.132 24.2013 260.972C22.7741 262.399 22.6901 262.819 23.6976 264.078C24.789 265.421 24.7051 265.505 23.4457 264.498C22.0185 263.322 20.5073 264.414 21.5148 266.009C21.7666 266.429 26.6361 269.619 32.1771 273.145L42.4197 279.442L46.5336 272.977C48.8004 269.367 50.8993 266.177 51.2351 265.757C51.5709 265.421 55.6848 267.604 60.3863 270.627L68.9498 276.084L71.4685 272.054C87.0843 246.951 88.0917 245.44 89.6029 245.608C90.7783 245.692 93.5488 241.998 100.685 230.58C105.89 222.268 110.004 215.3 109.92 215.216C109.5 214.796 73.8192 192.464 60.89 184.572L48.9683 177.184L39.9011 191.96ZM50.4795 195.066C51.0672 195.738 51.3191 197.165 50.9832 198.425C50.0597 201.867 44.6026 200.859 44.6026 197.165C44.6026 194.143 48.5485 192.716 50.4795 195.066ZM46.3657 241.41C47.4571 242.753 47.3731 242.837 46.1138 241.746C45.2742 241.158 44.6026 240.487 44.6026 240.319C44.6026 239.647 45.2742 240.067 46.3657 241.41ZM41.6641 242.417C41.4123 242.837 42.0839 243.845 43.0914 244.516C44.0989 245.272 44.6026 245.86 44.0989 245.86C42.8395 245.86 40.3209 242.921 40.9925 242.25C41.7481 241.41 42.2518 241.578 41.6641 242.417ZM39.3134 246.028C39.0615 246.699 38.8096 246.447 38.8096 245.524C38.7257 244.6 38.9776 244.097 39.2294 244.432C39.4813 244.684 39.5653 245.44 39.3134 246.028ZM40.1529 249.386C39.9011 250.057 39.6492 249.806 39.6492 248.882C39.5653 247.959 39.8171 247.455 40.069 247.791C40.3209 248.043 40.4048 248.798 40.1529 249.386ZM37.1305 249.806C38.222 251.149 38.138 251.233 36.8787 250.141C35.4514 249.05 35.0316 248.378 35.7033 248.378C35.8712 248.378 36.5428 249.05 37.1305 249.806ZM35.4514 251.485C36.5428 252.828 36.4589 252.912 35.1995 251.821C33.7723 250.729 33.3525 250.057 34.0242 250.057C34.1921 250.057 34.8637 250.729 35.4514 251.485ZM32.0932 255.683C33.1007 257.026 33.1007 257.11 32.0092 256.27C31.3376 255.766 30.1622 255.095 29.4906 254.843C28.3991 254.423 28.4831 254.339 29.5745 254.339C30.3301 254.255 31.5055 254.927 32.0932 255.683ZM31.2536 258.285C30.6659 258.453 29.7424 258.201 29.3226 257.781C28.651 257.11 28.9868 257.026 30.4141 257.362C31.5055 257.697 31.9253 258.033 31.2536 258.285Z" fill="#1068F0"/>
<path d="M5.30013 253.416L0.514648 261.056L3.28519 262.651C4.71244 263.574 8.07067 265.589 10.5893 267.185L15.2069 270.039L18.1454 265.337C19.8245 262.735 22.0073 259.209 23.0148 257.53L24.8618 254.423L18.1454 250.141C14.4513 247.791 11.0931 245.86 10.6733 245.86C10.3375 245.86 7.90276 249.302 5.30013 253.416Z" fill="#022E70"/>
<path d="M48.2865 278.77L43.501 286.494L47.4469 288.929C49.5458 290.356 52.7361 292.287 54.4152 293.379L57.4376 295.31L62.2231 287.67C66.0011 281.541 66.6728 279.778 65.8332 279.022C64.6578 278.015 53.6596 271.046 53.2399 271.046C53.0719 271.13 50.8891 274.573 48.2865 278.77Z" fill="#022E70"/>
<path d="M17.8946 279.358C12.1856 288.089 11.9337 288.761 13.1931 289.601C18.7341 293.211 25.7864 297.241 26.0383 296.989C27.0458 295.813 34.9376 282.548 34.9376 282.045C34.9376 281.457 22.848 273.565 21.9245 273.565C21.7566 273.565 19.9095 276.168 17.8946 279.358Z" fill="#1068F0"/>
<path d="M30.3184 207.408L49.6282 177.184L110.496 214.964L91.1863 245.608L30.3184 207.408Z" fill="#FFA00F"/>
<circle cx="48.369" cy="197.333" r="3.35823" fill="white"/>
<path d="M68.5186 10.0369V155.43C68.5186 160.953 72.9957 165.43 78.5186 165.43H142.474C147.997 165.43 152.474 160.953 152.474 155.43V10.0369C152.474 4.51408 147.997 0.0369263 142.474 0.0369263H78.5186C72.9957 0.0369263 68.5186 4.51407 68.5186 10.0369Z" fill="#1F314E"/>
<path d="M146.596 21.0258H73.5547V149.478H146.596V21.0258Z" fill="#FBF7F8"/>
<path d="M78.5928 46.2965C78.5928 49.6547 78.9286 52.1734 79.4323 52.1734C79.9361 52.1734 80.2719 50.0745 80.2719 47.5558V43.0222L84.8895 42.7703C91.522 42.4345 91.0182 40.9233 84.3018 40.5875L78.5928 40.3356V46.2965Z" fill="#C6BEBE"/>
<path d="M129.134 41.4271C129.386 42.0987 131.401 42.6024 134.339 42.7703L139.125 43.0222L139.041 46.5484C138.789 51.5018 138.957 52.1734 139.88 52.1734C140.384 52.1734 140.72 49.6547 140.72 46.2965V40.4196H134.759C130.393 40.4196 128.882 40.6715 129.134 41.4271Z" fill="#C6BEBE"/>
<path d="M84.4697 53.4327V60.569H91.606H98.7422V53.4327V46.2965H91.606H84.4697V53.4327ZM97.0631 53.4327V58.9738L91.8578 58.7219L86.5686 58.4701L86.3168 54.3562C85.897 48.3114 86.2328 47.9756 92.0258 47.9756H97.0631V53.4327Z" fill="black"/>
<path d="M88.668 53.4328C88.668 56.2873 88.7519 56.3712 92.0262 56.3712C95.3005 56.3712 95.3844 56.2873 95.3844 53.4328C95.3844 50.5783 95.3005 50.4943 92.0262 50.4943C88.7519 50.4943 88.668 50.5783 88.668 53.4328Z" fill="black"/>
<path d="M102.101 47.1361C102.101 47.5559 102.689 47.9756 103.36 47.9756C104.032 47.9756 104.62 48.5633 104.62 49.235C104.62 49.9066 104.032 50.4943 103.36 50.4943C101.429 50.4943 101.681 56.0354 103.612 56.791C104.956 57.2947 104.956 57.3787 103.612 58.3862C102.605 59.0578 102.101 60.653 102.101 62.5839V65.6064H96.6439C91.3547 65.6064 91.1868 65.6903 91.1868 67.7892C91.1868 70.3918 89.2558 70.14 88.836 67.4534C88.3323 64.347 86.1494 65.2705 86.1494 68.5448C86.1494 70.5597 86.5692 71.4833 87.4088 71.4833C89.1718 71.4833 89.0039 74.8415 87.2408 76.1848C85.8136 77.2762 85.8136 77.2762 87.2408 77.3602C87.9964 77.3602 88.6681 76.9404 88.6681 76.5206C88.6681 75.3452 91.0189 75.5131 91.4386 76.6885C91.6065 77.3602 92.1103 77.4441 92.5301 77.0243C92.9498 76.6046 92.8659 76.1008 92.2782 75.9329C91.0189 75.5131 90.767 71.4833 91.9424 71.4833C92.3621 71.4833 92.8659 70.6437 93.0338 69.5523C93.3696 67.3694 96.9797 66.362 97.1476 68.4609C97.2316 69.2165 97.3155 70.3079 97.3995 70.8116C97.3995 71.3993 97.9872 71.903 98.5749 71.8191C99.0786 71.7351 100.926 71.6512 102.521 71.5672C106.299 71.4833 106.719 68.9646 102.941 68.9646C101.597 68.9646 100.422 68.5448 100.422 68.125C100.422 67.6213 101.345 67.2855 102.521 67.2855C104.452 67.2855 104.62 67.0336 104.62 63.0037C104.62 59.3936 104.872 58.8059 106.131 59.0578C107.054 59.2257 107.558 60.1492 107.558 61.7444C107.558 63.0877 108.062 64.347 108.65 64.5149C109.321 64.7668 109.657 63.9272 109.657 61.9123V58.8899H113.519C119.564 58.8899 117.801 56.8749 111.504 56.5391C106.97 56.2873 106.299 56.0354 106.299 54.6921C106.299 53.7686 105.963 53.013 105.459 53.013C105.039 53.013 104.62 52.4253 104.62 51.7536C104.62 50.0745 105.963 50.1585 106.635 51.8376C106.887 52.5092 107.558 52.8451 108.062 52.5092C108.817 52.0895 108.65 51.5857 107.726 50.9141C104.956 48.8991 106.131 47.9756 111.756 47.9756C114.862 47.9756 117.213 47.6398 117.213 47.1361C117.213 46.6323 114.107 46.2965 109.657 46.2965C105.207 46.2965 102.101 46.6323 102.101 47.1361Z" fill="black"/>
<path d="M119.731 53.4327V60.569H126.868H134.004V53.4327V46.2965H126.868H119.731V53.4327ZM131.485 53.4327V58.8899H126.448H121.411V53.4327V47.9756H126.448H131.485V53.4327Z" fill="black"/>
<path d="M123.929 52.0895C123.929 53.013 123.677 54.2723 123.425 55.0279C123.005 56.1193 123.509 56.3712 125.86 56.3712C128.294 56.3712 128.882 56.0354 129.302 54.2723C130.057 51.3339 129.386 50.4943 126.363 50.4943C124.516 50.4943 123.929 50.9141 123.929 52.0895Z" fill="black"/>
<path d="M110.663 51.4178C110.831 51.9215 111.251 52.2573 111.587 52.2573C111.923 52.1734 113.35 52.1734 114.693 52.1734C116.12 52.1734 117.212 51.7536 117.212 51.3338C117.212 50.8301 115.701 50.4943 113.77 50.4943C111.671 50.4943 110.495 50.8301 110.663 51.4178Z" fill="black"/>
<path d="M108.565 53.5167C107.894 54.1883 108.649 55.5316 109.741 55.5316C110.16 55.5316 110.496 54.9439 110.496 54.2723C110.496 53.0129 109.489 52.5932 108.565 53.5167Z" fill="black"/>
<path d="M112.679 53.6006C111.755 54.5241 112.175 55.5316 113.434 55.5316C114.106 55.5316 114.694 55.1958 114.694 54.776C114.694 53.6846 113.35 52.929 112.679 53.6006Z" fill="black"/>
<path d="M111 60.401C110.412 61.4085 113.602 63.9272 115.533 63.9272C116.793 63.9272 117.213 63.3395 117.213 61.8283C117.213 59.6454 115.198 58.8898 114.358 60.7369C113.938 61.5764 113.77 61.5764 113.351 60.7369C112.847 59.5615 111.671 59.3936 111 60.401Z" fill="black"/>
<path d="M88.668 63.9272C88.668 64.347 89.2557 64.7668 89.9273 64.7668C90.599 64.7668 91.1866 64.347 91.1866 63.9272C91.1866 63.4235 90.599 63.0877 89.9273 63.0877C89.2557 63.0877 88.668 63.4235 88.668 63.9272Z" fill="black"/>
<path d="M93.7041 63.9272C93.7041 64.347 94.2918 64.7668 94.9634 64.7668C95.6351 64.7668 96.2228 64.347 96.2228 63.9272C96.2228 63.4235 95.6351 63.0877 94.9634 63.0877C94.2918 63.0877 93.7041 63.4235 93.7041 63.9272Z" fill="black"/>
<path d="M98.7422 63.9272C98.7422 64.347 99.078 64.7668 99.4978 64.7668C100.002 64.7668 100.589 64.347 100.841 63.9272C101.093 63.4235 100.757 63.0877 100.085 63.0877C99.3299 63.0877 98.7422 63.4235 98.7422 63.9272Z" fill="black"/>
<path d="M119.563 66.4459C119.815 69.0485 120.235 69.8041 121.494 69.8041C122.334 69.8041 123.09 69.3843 123.09 68.9645C123.09 68.4608 122.754 68.125 122.25 68.125C121.83 68.125 121.41 66.9496 121.41 65.6063C121.41 64.0951 120.991 63.0876 120.319 63.0876C119.563 63.0876 119.395 64.0951 119.563 66.4459Z" fill="black"/>
<path d="M130.645 64.347C130.645 65.0186 130.309 65.6063 129.805 65.6063C129.385 65.6063 128.965 66.194 128.965 66.8657C128.965 67.5373 129.385 68.125 129.805 68.125C130.309 68.125 130.645 68.7127 130.645 69.3843C130.645 70.056 130.309 70.6437 129.805 70.6437C129.385 70.6437 128.965 70.2239 128.965 69.8041C128.965 68.5448 127.37 68.7967 125.943 70.1399C125.271 70.8116 124.768 71.7351 124.768 72.2388C124.768 72.7426 124.18 73.1624 123.508 73.1624C122.837 73.1624 122.249 73.4982 122.249 74.0019C122.249 75.1773 124.516 75.0094 125.104 73.75C125.355 73.0784 125.775 73.1624 126.447 74.1698C127.538 76.0169 128.965 76.1008 128.965 74.4217C128.965 73.75 129.385 73.1624 129.805 73.1624C130.309 73.1624 130.645 73.4982 130.645 74.0019C130.645 74.4217 131.232 74.8415 131.904 74.8415C132.827 74.8415 133.079 73.6661 132.911 68.9646C132.827 64.9347 132.408 63.0877 131.736 63.0877C131.148 63.0877 130.645 63.6753 130.645 64.347Z" fill="black"/>
<path d="M125.607 64.7668C125.607 65.1865 126.195 65.6063 126.867 65.6063C127.538 65.6063 128.126 65.1865 128.126 64.7668C128.126 64.263 127.538 63.9272 126.867 63.9272C126.195 63.9272 125.607 64.263 125.607 64.7668Z" fill="black"/>
<path d="M114.694 66.0261C114.694 66.6978 115.114 67.2855 115.534 67.2855C116.038 67.2855 116.373 66.6978 116.373 66.0261C116.373 65.3545 116.038 64.7668 115.534 64.7668C115.114 64.7668 114.694 65.3545 114.694 66.0261Z" fill="black"/>
<path d="M106.298 66.8657C106.298 67.5373 106.886 68.125 107.557 68.125C108.229 68.125 108.817 68.4609 108.817 68.9646C108.817 69.3844 109.488 69.8041 110.412 69.8041C112.007 69.8041 113.014 71.903 113.014 75.4292C113.014 76.6046 113.518 77.3602 114.274 77.3602C114.945 77.3602 115.533 76.9404 115.533 76.5206C115.533 76.0169 116.876 75.6811 118.471 75.6811C120.067 75.6811 121.41 75.2613 121.41 74.8415C121.41 74.3378 120.067 74.0019 118.471 74.0019C116.876 74.0019 115.533 73.5822 115.533 73.1624C115.533 72.6586 116.121 72.3228 116.792 72.3228C117.464 72.3228 118.052 71.7351 118.052 71.0635C118.052 70.3918 117.464 69.8041 116.792 69.8041C116.121 69.8041 115.533 69.3844 115.533 68.9646C115.533 68.4609 114.945 68.125 114.274 68.125C113.518 68.125 112.762 67.5373 112.511 66.8657C112.175 66.1101 110.915 65.6064 109.152 65.6064C107.137 65.6064 106.298 66.0261 106.298 66.8657Z" fill="black"/>
<path d="M123.929 67.3694C123.929 67.7892 124.348 67.9571 124.768 67.7053C125.272 67.4534 125.608 67.0336 125.608 66.7818C125.608 66.6138 125.272 66.4459 124.768 66.4459C124.348 66.4459 123.929 66.8657 123.929 67.3694Z" fill="black"/>
<path d="M93.7041 70.6437C93.7041 71.0634 94.2918 71.4832 94.9634 71.4832C95.6351 71.4832 96.2228 71.0634 96.2228 70.6437C96.2228 70.1399 95.6351 69.8041 94.9634 69.8041C94.2918 69.8041 93.7041 70.1399 93.7041 70.6437Z" fill="black"/>
<path d="M106.298 72.6586C106.298 74.0859 106.718 74.8415 107.641 74.8415C108.481 74.8415 108.817 74.2538 108.649 72.9944C108.229 70.3078 106.298 70.056 106.298 72.6586Z" fill="black"/>
<path d="M95.3838 75.6811C95.3838 77.0243 95.9715 77.3602 98.3222 77.3602C100.673 77.3602 101.261 77.0243 101.261 75.6811C101.261 73.834 100.001 73.4142 99.2458 75.0094C98.826 75.849 98.6581 75.849 98.2383 75.0094C97.4827 73.4142 95.3838 73.834 95.3838 75.6811Z" fill="black"/>
<path d="M104.619 76.5207C104.619 76.9404 105.375 77.3602 106.298 77.3602C107.222 77.3602 108.229 77.9479 108.481 78.6196C109.237 80.6345 110.496 80.0468 110.496 77.78C110.496 75.933 110.16 75.6811 107.558 75.6811C105.962 75.6811 104.619 76.0169 104.619 76.5207Z" fill="black"/>
<path d="M121.41 77.7799C121.41 78.4516 121.83 79.0392 122.334 79.0392C123.677 79.0392 125.608 81.2221 125.608 82.7333C125.608 83.4889 125.272 84.0766 124.768 84.0766C124.349 84.0766 123.929 84.4124 123.929 84.9161C123.929 85.3359 125.272 85.7557 126.867 85.7557C128.462 85.7557 129.806 85.3359 129.806 84.9161C129.806 84.4124 129.47 84.0766 128.966 84.0766C128.546 84.0766 128.127 83.321 128.127 82.3975C128.127 81.474 128.462 80.7184 128.966 80.7184C130.226 80.7184 133.164 77.9478 132.66 77.1922C132.408 76.8564 129.806 76.5206 126.783 76.5206C122.586 76.5206 121.41 76.7724 121.41 77.7799Z" fill="black"/>
<path d="M117.212 79.3751C117.212 80.2146 116.457 80.7184 115.114 80.7184C113.434 80.7184 113.015 81.1381 113.015 82.8173C113.015 83.9926 113.434 84.9162 113.854 84.9162C114.358 84.9162 114.694 84.4964 114.694 84.0766C114.694 83.5729 115.281 83.237 115.953 83.237C116.793 83.237 117.212 84.1606 117.212 86.1755C117.212 87.7707 116.877 89.1139 116.373 89.1139C115.953 89.1139 115.533 89.4498 115.533 89.9535C115.533 90.3733 117.045 90.7931 118.892 90.7931C120.739 90.7931 122.25 90.3733 122.25 89.9535C122.25 89.4498 121.662 89.1139 120.99 89.1139C119.479 89.1139 119.227 85.252 120.823 84.6643C121.578 84.3285 121.578 83.9926 120.906 83.4889C120.319 83.1531 119.731 81.8937 119.647 80.8023C119.311 78.5355 117.212 77.2762 117.212 79.3751Z" fill="black"/>
<path d="M84.4697 87.4349V94.9909H91.522C95.4679 94.9909 98.8262 94.739 98.9941 94.3192C99.246 93.9834 99.162 90.6252 98.9101 86.7632L98.4903 79.8788H91.522H84.4697V87.4349ZM97.0631 87.4349V92.4722H91.606H86.1488V87.4349V82.3975H91.606H97.0631V87.4349Z" fill="black"/>
<path d="M88.668 87.8546C88.668 90.7091 88.7519 90.7931 92.0262 90.7931C95.3005 90.7931 95.3844 90.7091 95.3844 87.8546C95.3844 85.0001 95.3005 84.9162 92.0262 84.9162C88.7519 84.9162 88.668 85.0001 88.668 87.8546Z" fill="black"/>
<path d="M102.101 84.0766V88.2744H105.039C107.054 88.2744 107.977 88.6942 107.977 89.5337C107.977 90.2054 107.558 90.7931 107.054 90.7931C105.879 90.7931 103.78 92.892 103.78 94.0674C103.78 94.5711 104.199 94.9909 104.619 94.9909C105.123 94.9909 105.459 94.4032 105.459 93.7315C105.459 93.0599 105.879 92.4722 106.298 92.4722C106.802 92.4722 107.39 93.0599 107.642 93.7315C107.977 94.4871 109.237 94.9909 111 94.9909C113.015 94.9909 113.854 94.5711 113.854 93.7315C113.854 92.892 112.931 92.4722 110.916 92.4722C109.321 92.4722 107.977 92.0524 107.977 91.6326C107.977 91.1289 108.397 90.7931 108.817 90.7931C109.992 90.7931 109.825 88.5263 108.649 87.9386C107.81 87.5188 107.81 87.3509 108.649 86.9311C109.153 86.6792 109.657 86.0916 109.657 85.5878C109.657 84.4964 107.474 82.3975 106.382 82.3975C104.871 82.3975 105.375 84.7483 106.97 85.168C107.81 85.4199 107.474 85.5878 106.13 85.6718C104.032 85.7557 103.78 85.5039 103.78 82.8173C103.78 81.2221 103.444 79.8788 102.94 79.8788C102.52 79.8788 102.101 81.7259 102.101 84.0766Z" fill="black"/>
<path d="M125.607 88.2744C125.607 88.6942 126.195 89.114 126.867 89.114C127.538 89.114 128.126 88.6942 128.126 88.2744C128.126 87.7707 127.538 87.4348 126.867 87.4348C126.195 87.4348 125.607 87.7707 125.607 88.2744Z" fill="black"/>
<path d="M129.806 89.5337C129.806 90.2893 129.05 90.7931 128.043 90.7931C126.196 90.7931 123.929 92.6401 123.929 94.0674C123.929 94.5711 124.852 94.9909 126.028 94.9909C127.371 94.9909 128.127 94.4871 128.127 93.7315C128.127 92.9759 128.882 92.4722 130.225 92.4722C131.905 92.4722 132.324 92.0524 132.324 90.3733C132.324 89.03 131.821 88.2744 131.065 88.2744C130.393 88.2744 129.806 88.8621 129.806 89.5337Z" fill="black"/>
<path d="M78.5928 94.9069V100.868H84.5536C88.9193 100.868 90.4305 100.616 90.1787 99.7763C89.9268 99.1887 87.9958 98.6849 85.4772 98.517L81.1954 98.2651L80.9435 93.9834C80.7756 91.4647 80.2719 89.5337 79.6842 89.2819C78.8446 89.03 78.5928 90.5412 78.5928 94.9069Z" fill="#C6BEBE"/>
<path d="M138.201 93.6476V98.3491H133.583C130.057 98.3491 128.966 98.601 128.966 99.6084C128.966 100.616 130.141 100.868 134.675 100.868H140.3V95.2427C140.3 91.5487 139.964 89.5337 139.292 89.3658C138.453 89.114 138.201 90.2893 138.201 93.6476Z" fill="#C6BEBE"/>
<path d="M118.053 93.7316C118.053 94.4872 118.473 94.9909 118.976 94.823C119.48 94.6551 119.9 94.1514 119.9 93.7316C119.9 93.3118 119.48 92.8081 118.976 92.6402C118.473 92.4723 118.053 92.976 118.053 93.7316Z" fill="black"/>
<path d="M138.202 70.14H82.791C81.1681 70.14 79.8525 71.4556 79.8525 73.0785C79.8525 74.7013 81.1681 76.0169 82.791 76.0169H138.202C139.825 76.0169 141.14 74.7013 141.14 73.0785C141.14 71.4556 139.825 70.14 138.202 70.14Z" fill="#D8E8FF" fill-opacity="0.9"/>
<path d="M92.3317 121.584H93.0427C93.0869 121.878 93.2393 122.112 93.4997 122.287C93.7601 122.461 94.0908 122.549 94.4919 122.549C94.8721 122.549 95.1859 122.457 95.4333 122.275C95.6833 122.09 95.8083 121.858 95.8083 121.58C95.8083 121.34 95.7171 121.142 95.5349 120.986C95.3526 120.827 95.0674 120.698 94.6794 120.599L93.9567 120.412C93.4463 120.284 93.0752 120.099 92.8434 119.857C92.6117 119.615 92.4958 119.293 92.4958 118.892C92.4958 118.413 92.6781 118.026 93.0427 117.732C93.4099 117.435 93.8916 117.287 94.488 117.287C95.0323 117.287 95.488 117.433 95.8552 117.724C96.2224 118.016 96.4203 118.39 96.4489 118.845H95.7419C95.6924 118.556 95.5544 118.331 95.3278 118.17C95.1039 118.006 94.8161 117.924 94.4645 117.924C94.0895 117.924 93.7875 118.011 93.5583 118.185C93.3317 118.357 93.2184 118.585 93.2184 118.869C93.2184 119.09 93.3018 119.27 93.4684 119.408C93.6377 119.546 93.9164 119.664 94.3044 119.763L94.8942 119.92C95.4776 120.066 95.8955 120.261 96.1481 120.506C96.4033 120.75 96.5309 121.08 96.5309 121.494C96.5309 122.012 96.3408 122.425 95.9606 122.732C95.5804 123.037 95.0687 123.189 94.4255 123.189C93.8291 123.189 93.3395 123.043 92.9567 122.752C92.5765 122.46 92.3682 122.071 92.3317 121.584ZM101.101 120.135H100.422C100.364 119.913 100.241 119.732 100.05 119.592C99.863 119.448 99.6247 119.377 99.3356 119.377C98.958 119.377 98.6573 119.517 98.4333 119.799C98.2119 120.08 98.1013 120.459 98.1013 120.935C98.1013 121.42 98.2132 121.806 98.4372 122.095C98.6612 122.382 98.9606 122.525 99.3356 122.525C99.6195 122.525 99.8552 122.461 100.043 122.334C100.233 122.206 100.359 122.024 100.422 121.787H101.101C101.039 122.185 100.853 122.51 100.543 122.76C100.233 123.007 99.8317 123.131 99.3395 123.131C98.7484 123.131 98.2783 122.933 97.9294 122.537C97.5804 122.138 97.4059 121.605 97.4059 120.935C97.4059 120.279 97.5804 119.754 97.9294 119.361C98.2783 118.968 98.7471 118.771 99.3356 118.771C99.8278 118.771 100.229 118.9 100.539 119.158C100.851 119.416 101.039 119.741 101.101 120.135ZM103.39 122.541C103.737 122.541 104.023 122.441 104.25 122.24C104.479 122.039 104.593 121.788 104.593 121.486V121.099L103.461 121.174C103.143 121.194 102.91 121.261 102.761 121.373C102.613 121.485 102.539 121.648 102.539 121.861C102.539 122.072 102.618 122.239 102.777 122.361C102.936 122.481 103.14 122.541 103.39 122.541ZM103.265 123.131C102.851 123.131 102.51 123.017 102.242 122.791C101.976 122.562 101.843 122.257 101.843 121.877C101.843 121.502 101.976 121.207 102.242 120.994C102.508 120.78 102.886 120.659 103.379 120.631L104.593 120.556V120.174C104.593 119.913 104.513 119.714 104.351 119.576C104.19 119.438 103.953 119.369 103.64 119.369C103.388 119.369 103.178 119.414 103.011 119.506C102.845 119.597 102.738 119.726 102.691 119.892H102.011C102.056 119.556 102.229 119.286 102.531 119.08C102.836 118.874 103.213 118.771 103.664 118.771C104.174 118.771 104.569 118.895 104.847 119.142C105.126 119.39 105.265 119.733 105.265 120.174V123.056H104.625V122.435H104.562C104.427 122.659 104.247 122.831 104.023 122.951C103.799 123.071 103.547 123.131 103.265 123.131ZM106.508 123.056V118.845H107.148V119.51H107.211C107.435 119.017 107.856 118.771 108.476 118.771C108.948 118.771 109.311 118.907 109.566 119.177C109.821 119.446 109.949 119.83 109.949 120.33V123.056H109.277V120.494C109.277 120.116 109.195 119.836 109.031 119.654C108.869 119.469 108.621 119.377 108.285 119.377C107.946 119.377 107.677 119.483 107.476 119.697C107.278 119.908 107.179 120.197 107.179 120.564V123.056H106.508ZM111.179 123.056V118.845H111.82V119.51H111.883C112.106 119.017 112.528 118.771 113.148 118.771C113.619 118.771 113.983 118.907 114.238 119.177C114.493 119.446 114.621 119.83 114.621 120.33V123.056H113.949V120.494C113.949 120.116 113.867 119.836 113.703 119.654C113.541 119.469 113.293 119.377 112.957 119.377C112.618 119.377 112.349 119.483 112.148 119.697C111.95 119.908 111.851 120.197 111.851 120.564V123.056H111.179ZM115.867 123.056V118.845H116.539V123.056H115.867ZM116.535 117.853C116.444 117.944 116.333 117.99 116.203 117.99C116.073 117.99 115.962 117.944 115.871 117.853C115.78 117.76 115.734 117.649 115.734 117.521C115.734 117.394 115.78 117.284 115.871 117.193C115.962 117.099 116.073 117.052 116.203 117.052C116.333 117.052 116.444 117.099 116.535 117.193C116.626 117.284 116.672 117.394 116.672 117.521C116.672 117.649 116.626 117.76 116.535 117.853ZM117.82 123.056V118.845H118.461V119.51H118.523C118.747 119.017 119.169 118.771 119.789 118.771C120.26 118.771 120.623 118.907 120.879 119.177C121.134 119.446 121.261 119.83 121.261 120.33V123.056H120.59V120.494C120.59 120.116 120.508 119.836 120.343 119.654C120.182 119.469 119.933 119.377 119.597 119.377C119.259 119.377 118.989 119.483 118.789 119.697C118.591 119.908 118.492 120.197 118.492 120.564V123.056H117.82ZM124.195 122.4C124.583 122.4 124.888 122.265 125.109 121.994C125.333 121.72 125.445 121.352 125.445 120.888C125.445 120.427 125.333 120.06 125.109 119.787C124.885 119.513 124.58 119.377 124.195 119.377C123.81 119.377 123.51 119.512 123.297 119.783C123.083 120.054 122.976 120.422 122.976 120.888C122.976 121.355 123.083 121.723 123.297 121.994C123.51 122.265 123.81 122.4 124.195 122.4ZM124.226 124.674C123.724 124.674 123.316 124.569 123.004 124.361C122.694 124.153 122.513 123.873 122.461 123.521H123.172C123.208 123.696 123.319 123.834 123.504 123.935C123.689 124.037 123.929 124.088 124.226 124.088C124.604 124.088 124.898 123.999 125.109 123.822C125.323 123.648 125.429 123.405 125.429 123.095V122.267H125.367C125.234 122.499 125.053 122.679 124.824 122.806C124.595 122.931 124.336 122.994 124.047 122.994C123.505 122.994 123.075 122.802 122.758 122.42C122.44 122.034 122.281 121.524 122.281 120.888C122.281 120.253 122.441 119.741 122.761 119.353C123.082 118.965 123.51 118.771 124.047 118.771C124.341 118.771 124.609 118.839 124.851 118.974C125.093 119.107 125.276 119.287 125.398 119.513H125.461V118.845H126.101V123.131C126.101 123.602 125.932 123.977 125.593 124.256C125.255 124.534 124.799 124.674 124.226 124.674ZM127.922 123.095C127.784 123.095 127.664 123.046 127.562 122.947C127.463 122.845 127.414 122.726 127.414 122.588C127.414 122.447 127.463 122.327 127.562 122.228C127.664 122.129 127.784 122.08 127.922 122.08C128.062 122.08 128.182 122.129 128.281 122.228C128.38 122.327 128.429 122.447 128.429 122.588C128.429 122.726 128.38 122.845 128.281 122.947C128.182 123.046 128.062 123.095 127.922 123.095ZM98.7927 127.42H100.922C101.455 127.42 101.889 127.59 102.222 127.931C102.558 128.27 102.726 128.707 102.726 129.244C102.726 129.77 102.556 130.202 102.215 130.541C101.876 130.877 101.442 131.045 100.914 131.045H99.4958V133.056H98.7927V127.42ZM99.4958 128.045V130.42H100.738C101.139 130.42 101.45 130.317 101.672 130.111C101.893 129.905 102.004 129.616 102.004 129.244C102.004 128.856 101.894 128.559 101.675 128.353C101.459 128.148 101.147 128.045 100.738 128.045H99.4958ZM103.832 133.056V127.174H104.504V133.056H103.832ZM107.488 129.365C107.152 129.365 106.876 129.478 106.66 129.705C106.444 129.931 106.323 130.231 106.297 130.603H108.617C108.609 130.231 108.502 129.931 108.297 129.705C108.091 129.478 107.821 129.365 107.488 129.365ZM108.597 131.967H109.269C109.168 132.331 108.961 132.616 108.648 132.822C108.338 133.028 107.954 133.131 107.496 133.131C106.912 133.131 106.45 132.935 106.109 132.545C105.768 132.151 105.597 131.622 105.597 130.955C105.597 130.291 105.769 129.761 106.113 129.365C106.457 128.969 106.918 128.771 107.496 128.771C108.064 128.771 108.51 128.96 108.836 129.338C109.161 129.715 109.324 130.232 109.324 130.888V131.146H106.297V131.177C106.315 131.594 106.432 131.925 106.648 132.17C106.867 132.414 107.155 132.537 107.511 132.537C108.056 132.537 108.418 132.347 108.597 131.967ZM111.675 132.541C112.022 132.541 112.308 132.441 112.535 132.24C112.764 132.039 112.879 131.788 112.879 131.486V131.099L111.746 131.174C111.428 131.194 111.195 131.261 111.047 131.373C110.898 131.485 110.824 131.648 110.824 131.861C110.824 132.072 110.903 132.239 111.062 132.361C111.221 132.481 111.425 132.541 111.675 132.541ZM111.55 133.131C111.136 133.131 110.795 133.017 110.527 132.791C110.261 132.562 110.129 132.257 110.129 131.877C110.129 131.502 110.261 131.207 110.527 130.994C110.793 130.78 111.172 130.659 111.664 130.631L112.879 130.556V130.174C112.879 129.913 112.798 129.714 112.636 129.576C112.475 129.438 112.238 129.369 111.925 129.369C111.673 129.369 111.463 129.414 111.297 129.506C111.13 129.597 111.023 129.726 110.976 129.892H110.297C110.341 129.556 110.514 129.286 110.816 129.08C111.121 128.874 111.498 128.771 111.949 128.771C112.459 128.771 112.854 128.895 113.133 129.142C113.411 129.39 113.55 129.733 113.55 130.174V133.056H112.91V132.435H112.847C112.712 132.659 112.532 132.831 112.308 132.951C112.084 133.071 111.832 133.131 111.55 133.131ZM114.695 129.998C114.695 129.649 114.845 129.357 115.144 129.123C115.444 128.888 115.817 128.771 116.265 128.771C116.705 128.771 117.069 128.873 117.355 129.076C117.642 129.279 117.807 129.554 117.851 129.9H117.187C117.14 129.728 117.036 129.593 116.875 129.494C116.716 129.392 116.511 129.342 116.261 129.342C116.009 129.342 115.797 129.4 115.625 129.517C115.455 129.635 115.371 129.786 115.371 129.97C115.371 130.114 115.429 130.233 115.547 130.33C115.666 130.424 115.851 130.5 116.101 130.56L116.75 130.717C117.151 130.813 117.446 130.952 117.636 131.135C117.829 131.317 117.925 131.558 117.925 131.857C117.925 132.23 117.765 132.536 117.445 132.775C117.125 133.012 116.722 133.131 116.238 133.131C115.769 133.131 115.385 133.026 115.086 132.818C114.786 132.61 114.618 132.331 114.582 131.982H115.273C115.33 132.164 115.444 132.308 115.613 132.412C115.782 132.513 115.998 132.564 116.261 132.564C116.545 132.564 116.778 132.503 116.961 132.381C117.143 132.258 117.234 132.101 117.234 131.908C117.234 131.622 117.011 131.424 116.566 131.314L115.843 131.138C115.445 131.042 115.153 130.904 114.968 130.724C114.786 130.542 114.695 130.3 114.695 129.998ZM120.66 129.365C120.324 129.365 120.048 129.478 119.832 129.705C119.616 129.931 119.494 130.231 119.468 130.603H121.789C121.781 130.231 121.674 129.931 121.468 129.705C121.263 129.478 120.993 129.365 120.66 129.365ZM121.769 131.967H122.441C122.34 132.331 122.133 132.616 121.82 132.822C121.51 133.028 121.126 133.131 120.668 133.131C120.084 133.131 119.622 132.935 119.281 132.545C118.94 132.151 118.769 131.622 118.769 130.955C118.769 130.291 118.941 129.761 119.285 129.365C119.629 128.969 120.09 128.771 120.668 128.771C121.235 128.771 121.682 128.96 122.008 129.338C122.333 129.715 122.496 130.232 122.496 130.888V131.146H119.468V131.177C119.487 131.594 119.604 131.925 119.82 132.17C120.039 132.414 120.327 132.537 120.683 132.537C121.228 132.537 121.59 132.347 121.769 131.967ZM105.179 138.845L104 143.056H103.316L102.375 139.799H102.312L101.375 143.056H100.695L99.5153 138.845H100.195L101.023 142.213H101.086L102.027 138.845H102.672L103.613 142.213H103.675L104.504 138.845H105.179ZM107.258 142.541C107.604 142.541 107.89 142.441 108.117 142.24C108.346 142.039 108.461 141.788 108.461 141.486V141.099L107.328 141.174C107.01 141.194 106.777 141.261 106.629 141.373C106.48 141.485 106.406 141.648 106.406 141.861C106.406 142.072 106.485 142.239 106.644 142.361C106.803 142.481 107.008 142.541 107.258 142.541ZM107.133 143.131C106.718 143.131 106.377 143.017 106.109 142.791C105.843 142.562 105.711 142.257 105.711 141.877C105.711 141.502 105.843 141.207 106.109 140.994C106.375 140.78 106.754 140.659 107.246 140.631L108.461 140.556V140.174C108.461 139.913 108.38 139.714 108.218 139.576C108.057 139.438 107.82 139.369 107.508 139.369C107.255 139.369 107.045 139.414 106.879 139.506C106.712 139.597 106.605 139.726 106.558 139.892H105.879C105.923 139.556 106.096 139.286 106.398 139.08C106.703 138.874 107.08 138.771 107.531 138.771C108.041 138.771 108.436 138.895 108.715 139.142C108.993 139.39 109.133 139.733 109.133 140.174V143.056H108.492V142.435H108.429C108.294 142.659 108.114 142.831 107.89 142.951C107.666 143.071 107.414 143.131 107.133 143.131ZM110.39 143.056V138.845H111.062V143.056H110.39ZM111.058 137.853C110.967 137.944 110.856 137.99 110.726 137.99C110.596 137.99 110.485 137.944 110.394 137.853C110.303 137.76 110.258 137.649 110.258 137.521C110.258 137.394 110.303 137.284 110.394 137.193C110.485 137.099 110.596 137.052 110.726 137.052C110.856 137.052 110.967 137.099 111.058 137.193C111.149 137.284 111.195 137.394 111.195 137.521C111.195 137.649 111.149 137.76 111.058 137.853ZM112.625 137.756H113.297V138.845H114.234V139.408H113.297V141.791C113.297 142.038 113.346 142.218 113.445 142.33C113.544 142.442 113.703 142.498 113.922 142.498C114.018 142.498 114.122 142.493 114.234 142.482V143.049C114.086 143.075 113.954 143.088 113.84 143.088C113.405 143.088 113.093 143 112.906 142.826C112.718 142.651 112.625 142.364 112.625 141.963V139.408H111.945V138.845H112.625V137.756ZM115.804 143.095C115.666 143.095 115.547 143.046 115.445 142.947C115.346 142.845 115.297 142.726 115.297 142.588C115.297 142.447 115.346 142.327 115.445 142.228C115.547 142.129 115.666 142.08 115.804 142.08C115.945 142.08 116.065 142.129 116.164 142.228C116.263 142.327 116.312 142.447 116.312 142.588C116.312 142.726 116.263 142.845 116.164 142.947C116.065 143.046 115.945 143.095 115.804 143.095ZM118.179 143.095C118.041 143.095 117.922 143.046 117.82 142.947C117.721 142.845 117.672 142.726 117.672 142.588C117.672 142.447 117.721 142.327 117.82 142.228C117.922 142.129 118.041 142.08 118.179 142.08C118.32 142.08 118.44 142.129 118.539 142.228C118.638 142.327 118.687 142.447 118.687 142.588C118.687 142.726 118.638 142.845 118.539 142.947C118.44 143.046 118.32 143.095 118.179 143.095ZM120.554 143.095C120.416 143.095 120.297 143.046 120.195 142.947C120.096 142.845 120.047 142.726 120.047 142.588C120.047 142.447 120.096 142.327 120.195 142.228C120.297 142.129 120.416 142.08 120.554 142.08C120.695 142.08 120.815 142.129 120.914 142.228C121.013 142.327 121.062 142.447 121.062 142.588C121.062 142.726 121.013 142.845 120.914 142.947C120.815 143.046 120.695 143.095 120.554 143.095Z" fill="black"/>
<rect x="99.582" y="10.1116" width="21.8285" height="2.51867" rx="1.25934" fill="#C4C4C4"/>
<path d="M147.016 69.7203L154.572 59.2258C159.609 54.6081 168.845 59.226 166.326 68.461L160.029 76.8566C154.573 83.1532 144.078 80.2148 147.016 69.7203Z" fill="#CD742B"/>
<path d="M146.177 94.907L154.571 84.4129C165.067 72.239 174.721 83.1532 169.264 91.5491L160.449 103.303C151.215 115.476 136.106 107.5 146.177 94.907Z" fill="#CD742B"/>
<path d="M146.179 121.773L154.573 111.279C165.069 99.1048 176.824 109.599 170.527 118.835L160.451 130.169C147.018 149.059 133.585 136.885 146.179 121.773Z" fill="#CD742B"/>
<path d="M157.092 77.6961C153.058 76.1971 151.133 74.9384 148.696 71.3994L152.054 67.2016C158.66 65.8187 159.73 67.9571 160.45 73.0785L157.092 77.6961Z" fill="#F6DCCB"/>
<path d="M153.314 107.5C149.478 105.687 147.597 104.218 144.918 100.784L148.696 95.3268C154.573 92.8081 159.191 96.5861 157.092 103.303L153.314 107.5Z" fill="#F6DCCB"/>
<path d="M148.696 137.305C145.231 136.123 144.595 136.194 142.4 132.267L147.017 127.23C152.474 125.971 154.993 128.489 154.993 133.107L148.696 137.305Z" fill="#F6DCCB"/>
<path d="M56.3448 68.0411H50.8877L53.8261 82.7334C56.4027 82.1767 56.4399 81.545 58.0239 78.9554L56.3448 68.0411Z" fill="#F6DCCB"/>
</svg>
