<svg width="115" height="115" viewBox="0 0 115 115" fill="none" xmlns="http://www.w3.org/2000/svg">
<circle cx="57.5" cy="57.5" r="57.5" fill="#D8E8FF"/>
<path d="M50.8551 54.8163H27.9209C25.7381 54.8163 23.959 53.0372 23.959 50.8544V27.9202C23.959 25.7374 25.7381 23.9583 27.9209 23.9583H50.8551C53.0379 23.9583 54.817 25.7374 54.817 27.9202V50.8544C54.817 53.0372 53.0379 54.8163 50.8551 54.8163ZM27.9209 26.9484C27.3827 26.9484 26.9491 27.3819 26.9491 27.9202V50.8544C26.9491 51.3926 27.3827 51.8262 27.9209 51.8262H50.8551C51.3933 51.8262 51.8269 51.3926 51.8269 50.8544V27.9202C51.8269 27.3819 51.3933 26.9484 50.8551 26.9484H27.9209Z" fill="#1068F0"/>
<path d="M42.4898 45.704H36.2779C34.5062 45.704 33.0635 44.2612 33.0635 42.4896V36.2776C33.0635 34.506 34.5062 33.0632 36.2779 33.0632H42.4898C44.2615 33.0632 45.7042 34.506 45.7042 36.2776V42.4896C45.7042 44.2612 44.2615 45.704 42.4898 45.704ZM36.2779 34.5583C35.3285 34.5583 34.5585 35.3282 34.5585 36.2776V42.4896C34.5585 43.4389 35.3285 44.2089 36.2779 44.2089H42.4898C43.4392 44.2089 44.2091 43.4389 44.2091 42.4896V36.2776C44.2091 35.3282 43.4392 34.5583 42.4898 34.5583H36.2779Z" fill="#1068F0"/>
<path d="M42.4898 81.9366H36.2779C34.5062 81.9366 33.0635 80.4939 33.0635 78.7223V72.5103C33.0635 70.7386 34.5062 69.2959 36.2779 69.2959H42.4898C44.2615 69.2959 45.7042 70.7386 45.7042 72.5103V78.7223C45.7042 80.4939 44.2615 81.9366 42.4898 81.9366ZM36.2779 70.791C35.3285 70.791 34.5585 71.5609 34.5585 72.5103V78.7223C34.5585 79.6716 35.3285 80.4416 36.2779 80.4416H42.4898C43.4392 80.4416 44.2091 79.6716 44.2091 78.7223V72.5103C44.2091 71.5609 43.4392 70.791 42.4898 70.791H36.2779Z" fill="#1068F0"/>
<path d="M78.7232 45.704H72.5113C70.7396 45.704 69.2969 44.2612 69.2969 42.4896V36.2776C69.2969 34.506 70.7396 33.0632 72.5113 33.0632H78.7232C80.4949 33.0632 81.9376 34.506 81.9376 36.2776V42.4896C81.9376 44.2612 80.4949 45.704 78.7232 45.704ZM72.5113 34.5583C71.5619 34.5583 70.7919 35.3282 70.7919 36.2776V42.4896C70.7919 43.4389 71.5619 44.2089 72.5113 44.2089H78.7232C79.6726 44.2089 80.4425 43.4389 80.4425 42.4896V36.2776C80.4425 35.3282 79.6726 34.5583 78.7232 34.5583H72.5113Z" fill="#1068F0"/>
<path d="M50.8551 91.0416H27.9209C25.7381 91.0416 23.959 89.2625 23.959 87.0797V64.1455C23.959 61.9627 25.7381 60.1836 27.9209 60.1836H50.8551C53.0379 60.1836 54.817 61.9627 54.817 64.1455V87.0797C54.817 89.2625 53.0379 91.0416 50.8551 91.0416ZM27.9209 63.1737C27.3827 63.1737 26.9491 63.6073 26.9491 64.1455V87.0797C26.9491 87.6179 27.3827 88.0515 27.9209 88.0515H50.8551C51.3933 88.0515 51.8269 87.6179 51.8269 87.0797V64.1455C51.8269 63.6073 51.3933 63.1737 50.8551 63.1737H27.9209Z" fill="#0657CD"/>
<path d="M72.8243 74.3194C72.002 74.3194 71.3293 73.6466 71.3293 72.8243V64.1455C71.3293 63.6073 70.8957 63.1737 70.3575 63.1737H61.6787C60.8564 63.1737 60.1836 62.5009 60.1836 61.6787C60.1836 60.8564 60.8564 60.1836 61.6787 60.1836H70.3575C72.5403 60.1836 74.3194 61.9627 74.3194 64.1455V72.8243C74.3194 73.6541 73.6541 74.3194 72.8243 74.3194Z" fill="#1068F0"/>
<path d="M86.7594 82.6841H75.2998C73.117 82.6841 71.3379 80.905 71.3379 78.7222V70.0434C71.3379 69.2211 72.0107 68.5483 72.833 68.5483C73.6552 68.5483 74.328 69.2211 74.328 70.0434V78.7222C74.328 79.2604 74.7616 79.694 75.2998 79.694H86.7669C87.5892 79.694 88.262 80.3668 88.262 81.1891C88.262 82.0114 87.5892 82.6841 86.7594 82.6841Z" fill="#0657CD"/>
<path d="M87.0807 54.8163H64.1465C61.9637 54.8163 60.1846 53.0372 60.1846 50.8544V27.9202C60.1846 25.7374 61.9637 23.9583 64.1465 23.9583H87.0807C89.2635 23.9583 91.0426 25.7374 91.0426 27.9202V50.8544C91.0426 53.0372 89.2635 54.8163 87.0807 54.8163ZM64.1465 26.9484C63.6083 26.9484 63.1747 27.3819 63.1747 27.9202V50.8544C63.1747 51.3926 63.6083 51.8262 64.1465 51.8262H87.0807C87.6189 51.8262 88.0525 51.3926 88.0525 50.8544V27.9202C88.0525 27.3819 87.6189 26.9484 87.0807 26.9484H64.1465Z" fill="#0657CD"/>
<path d="M89.5472 71.5386H85.6675C83.9108 71.5386 82.4756 70.1108 82.4756 68.3466V61.6787C82.4756 60.8564 83.1484 60.1836 83.9706 60.1836C84.7929 60.1836 85.4657 60.8564 85.4657 61.6787V68.3466C85.4657 68.4588 85.5554 68.5485 85.6675 68.5485H89.5472C90.3695 68.5485 91.0423 69.2212 91.0423 70.0435C91.0423 70.8658 90.377 71.5386 89.5472 71.5386Z" fill="#1068F0"/>
<path d="M72.8243 91.0415H64.1455C61.9627 91.0415 60.1836 89.2624 60.1836 87.0796V70.0434C60.1836 69.2211 60.8564 68.5483 61.6787 68.5483C62.5009 68.5483 63.1737 69.2211 63.1737 70.0434V87.0796C63.1737 87.6178 63.6073 88.0514 64.1455 88.0514H72.8243C73.6466 88.0514 74.3194 88.7242 74.3194 89.5465C74.3194 90.3687 73.6541 91.0415 72.8243 91.0415Z" fill="#1068F0"/>
<path d="M86.7587 91.0418C85.9364 91.0418 85.2637 90.3691 85.2637 89.5468V81.1894C85.2637 80.3671 85.9364 79.6943 86.7587 79.6943C87.581 79.6943 88.2538 80.3671 88.2538 81.1894V89.5468C88.2538 90.3765 87.5885 91.0418 86.7587 91.0418Z" fill="#1068F0"/>
</svg>
