<svg width="440" height="346" viewBox="0 0 440 346" fill="none" xmlns="http://www.w3.org/2000/svg">
<g filter="url(#filter0_d)">
<path d="M9.55664 157.358V131.132C43.6676 136.971 54.8219 136.056 68.5659 131.132V157.358H9.55664Z" fill="#F2F3F6"/>
</g>
<g filter="url(#filter1_d)">
<path d="M53.8135 199.976V172.93C87.9244 178.952 99.0788 178.008 112.823 172.93V199.976H53.8135Z" fill="#F2F3F6"/>
</g>
<g filter="url(#filter2_d)">
<path d="M148.884 199.976V172.93C183.469 178.952 194.778 178.008 208.713 172.93V199.976H148.884Z" fill="#F2F3F6"/>
</g>
<g filter="url(#filter3_d)">
<path d="M97.251 157.358V131.132C131.836 136.971 143.145 136.056 157.08 131.132V157.358H97.251Z" fill="#F2F3F6"/>
</g>
<g filter="url(#filter4_d)">
<path d="M193.141 161.456V135.229C227.252 141.069 238.406 140.154 252.15 135.229V161.456H193.141Z" fill="#F2F3F6"/>
</g>
<g filter="url(#filter5_d)">
<path d="M10.376 71.3028V45.0765C44.9607 50.9162 56.2699 50.001 70.2048 45.0765V71.3028H10.376Z" fill="#F2F3F6"/>
</g>
<g filter="url(#filter6_d)">
<path d="M57.0918 109.823V82.7769C91.6765 88.799 102.986 87.8553 116.921 82.7769V109.823H57.0918Z" fill="#F2F3F6"/>
</g>
<g filter="url(#filter7_d)">
<path d="M57.0918 27.0459V0C91.6765 6.02217 102.986 5.07841 116.921 0V27.0459H57.0918Z" fill="#F2F3F6"/>
</g>
<g filter="url(#filter8_d)">
<path d="M152.162 27.0459V0C186.747 6.02217 198.056 5.07841 211.991 0V27.0459H152.162Z" fill="#F2F3F6"/>
</g>
<g filter="url(#filter9_d)">
<path d="M248.872 27.0459V0C283.457 6.02217 294.766 5.07841 308.701 0V27.0459H248.872Z" fill="#F2F3F6"/>
</g>
<g filter="url(#filter10_d)">
<path d="M150.523 109.823V82.7769C184.634 88.799 195.789 87.8553 209.533 82.7769V109.823H150.523Z" fill="#F2F3F6"/>
</g>
<g filter="url(#filter11_d)">
<path d="M98.8896 71.3028V45.0765C133.001 50.9162 144.155 50.001 157.899 45.0765V71.3028H98.8896Z" fill="#F2F3F6"/>
</g>
<g filter="url(#filter12_d)">
<path d="M192.321 71.3028V45.0765C226.432 50.9162 237.587 50.001 251.331 45.0765V71.3028H192.321Z" fill="#F2F3F6"/>
</g>
<g filter="url(#filter13_d)">
<path d="M288.211 157.358V131.132C322.322 136.971 333.476 136.056 347.22 131.132V157.358H288.211Z" fill="#F2F3F6"/>
</g>
<g filter="url(#filter14_d)">
<path d="M348.859 199.976V172.93C382.97 178.952 394.125 178.008 407.869 172.93V199.976H348.859Z" fill="#F2F3F6"/>
</g>
<g filter="url(#filter15_d)">
<path d="M258.707 199.976V172.93C292.818 178.952 303.972 178.008 317.716 172.93V199.976H258.707Z" fill="#F2F3F6"/>
</g>
<g filter="url(#filter16_d)">
<path d="M375.905 157.358V131.132C410.49 136.971 421.799 136.056 435.734 131.132V157.358H375.905Z" fill="#F2F3F6"/>
</g>
<g filter="url(#filter17_d)">
<path d="M289.031 71.3028V45.0765C323.616 50.9162 334.925 50.001 348.86 45.0765V71.3028H289.031Z" fill="#F2F3F6"/>
</g>
<g filter="url(#filter18_d)">
<path d="M335.746 109.823V82.7769C370.331 88.799 381.64 87.8553 395.575 82.7769V109.823H335.746Z" fill="#F2F3F6"/>
</g>
<g filter="url(#filter19_d)">
<path d="M377.545 71.3028V45.0765C411.656 50.9162 422.81 50.001 436.554 45.0765V71.3028H377.545Z" fill="#F2F3F6"/>
</g>
<g filter="url(#filter20_d)">
<path d="M288.211 245.872V219.645C322.322 225.485 333.476 224.57 347.22 219.645V245.872H288.211Z" fill="#F2F3F6"/>
</g>
<g filter="url(#filter21_d)">
<path d="M332.468 288.49V261.444C366.579 267.466 377.733 266.522 391.477 261.444V288.49H332.468Z" fill="#F2F3F6"/>
</g>
<g filter="url(#filter22_d)">
<path d="M375.905 245.872V219.645C410.49 225.485 421.799 224.57 435.734 219.645V245.872H375.905Z" fill="#F2F3F6"/>
</g>
<g filter="url(#filter23_d)">
<path d="M3 288.49V261.444C37.111 267.466 48.2653 266.522 62.0092 261.444V288.49H3Z" fill="#F2F3F6"/>
</g>
<g filter="url(#filter24_d)">
<path d="M46.4375 245.872V219.645C81.0222 225.485 92.3315 224.57 106.266 219.645V245.872H46.4375Z" fill="#F2F3F6"/>
</g>
<g filter="url(#filter25_d)">
<path d="M196.83 19.6697L129.215 81.5475H269.772L196.83 19.6697Z" stroke="black"/>
<path d="M103.808 97.5291V80.3181H294.768V97.5291H103.808Z" fill="#1F314E"/>
<path d="M103.808 320.453V302.422H294.768V320.453H103.808Z" fill="#1F314E"/>
<rect x="115" y="96.7095" width="168.832" height="205.713" fill="#D8E4F4"/>
<path d="M174.831 137.116H172.956V129.187H172.846L169.729 136.679H168.292L165.175 129.187H165.065V137.116H163.19V125.843H165.55L168.94 134.054H169.081L172.471 125.843H174.831V137.116ZM184.846 128.569V137.116H182.979V135.757H182.846C182.414 136.778 181.563 137.288 180.292 137.288C179.359 137.288 178.633 137.012 178.112 136.46C177.591 135.903 177.331 135.124 177.331 134.124V128.569H179.268V133.64C179.268 134.296 179.406 134.786 179.682 135.108C179.958 135.426 180.385 135.585 180.964 135.585C181.589 135.585 182.068 135.405 182.401 135.046C182.74 134.687 182.909 134.187 182.909 133.546V128.569H184.846ZM187.221 137.116V128.569H189.089V129.952H189.221C189.404 129.463 189.703 129.082 190.12 128.812C190.536 128.536 191.029 128.398 191.596 128.398C192.175 128.398 192.667 128.536 193.073 128.812C193.479 129.082 193.773 129.463 193.956 129.952H194.089C194.302 129.478 194.641 129.101 195.104 128.819C195.568 128.538 196.094 128.398 196.682 128.398C197.536 128.398 198.206 128.65 198.69 129.155C199.18 129.661 199.425 130.356 199.425 131.241V137.116H197.495V131.733C197.495 130.635 196.974 130.085 195.932 130.085C195.432 130.085 195.029 130.246 194.721 130.569C194.414 130.892 194.26 131.301 194.26 131.796V137.116H192.378V131.593C192.378 131.124 192.24 130.757 191.964 130.491C191.688 130.22 191.31 130.085 190.831 130.085C190.352 130.085 189.953 130.26 189.635 130.608C189.318 130.957 189.159 131.395 189.159 131.921V137.116H187.221ZM201.721 137.116V128.569H203.589V129.952H203.721C203.904 129.463 204.203 129.082 204.62 128.812C205.036 128.536 205.529 128.398 206.096 128.398C206.675 128.398 207.167 128.536 207.573 128.812C207.979 129.082 208.273 129.463 208.456 129.952H208.589C208.802 129.478 209.141 129.101 209.604 128.819C210.068 128.538 210.594 128.398 211.182 128.398C212.036 128.398 212.706 128.65 213.19 129.155C213.68 129.661 213.925 130.356 213.925 131.241V137.116H211.995V131.733C211.995 130.635 211.474 130.085 210.432 130.085C209.932 130.085 209.529 130.246 209.221 130.569C208.914 130.892 208.76 131.301 208.76 131.796V137.116H206.878V131.593C206.878 131.124 206.74 130.757 206.464 130.491C206.188 130.22 205.81 130.085 205.331 130.085C204.852 130.085 204.453 130.26 204.135 130.608C203.818 130.957 203.659 131.395 203.659 131.921V137.116H201.721ZM216.893 140.218C216.492 140.218 216.237 140.207 216.128 140.187V138.601C216.227 138.621 216.404 138.632 216.659 138.632C217.07 138.632 217.396 138.546 217.635 138.374C217.88 138.202 218.065 137.921 218.19 137.53L218.292 137.155L215.237 128.569H217.362L219.362 135.241H219.495L221.487 128.569H223.534L220.448 137.39C220.089 138.447 219.646 139.181 219.12 139.593C218.599 140.01 217.857 140.218 216.893 140.218ZM228.901 134.046H230.87C230.875 134.51 231.026 134.882 231.323 135.163C231.62 135.444 232.008 135.585 232.487 135.585C233.018 135.585 233.425 135.429 233.706 135.116C233.987 134.799 234.128 134.338 234.128 133.733V125.843H236.143V133.749C236.143 134.905 235.823 135.804 235.182 136.444C234.542 137.08 233.651 137.398 232.51 137.398C231.427 137.398 230.555 137.093 229.893 136.483C229.232 135.874 228.901 135.062 228.901 134.046Z" fill="#022E70"/>
<rect x="142.427" y="154.18" width="114.54" height="114.54" stroke="black" stroke-width="0.2"/>
<path fill-rule="evenodd" clip-rule="evenodd" d="M126.754 105.725L120.198 112.281L126.754 118.838L129.472 116.12L132.189 118.838L138.745 112.281L132.189 105.725L129.472 108.443L126.754 105.725ZM129.472 108.443L125.634 112.281L129.472 116.12L133.31 112.281L129.472 108.443Z" fill="#1068F0"/>
<path fill-rule="evenodd" clip-rule="evenodd" d="M266.901 283.572L260.345 290.129L266.901 296.685L269.619 293.968L272.337 296.685L278.893 290.129L272.337 283.572L269.619 286.29L266.901 283.572ZM269.619 286.29L265.78 290.129L269.619 293.968L273.458 290.129L269.619 286.29Z" fill="#1068F0"/>
<path d="M166.915 183.513V193.195H176.597H186.279V183.513V173.831H176.597H166.915V183.513ZM184.001 183.513V191.031L176.939 190.69L169.763 190.348L169.421 184.766C168.851 176.565 169.307 176.109 177.167 176.109H184.001V183.513Z" fill="#022E70"/>
<path d="M172.61 183.513C172.61 187.386 172.724 187.5 177.167 187.5C181.609 187.5 181.723 187.386 181.723 183.513C181.723 179.641 181.609 179.527 177.167 179.527C172.724 179.527 172.61 179.641 172.61 183.513Z" fill="#1068F0"/>
<path d="M190.836 174.97C190.836 175.54 191.633 176.109 192.544 176.109C193.455 176.109 194.253 176.907 194.253 177.818C194.253 178.729 193.455 179.527 192.544 179.527C189.924 179.527 190.266 187.045 192.886 188.07C194.708 188.753 194.708 188.867 192.886 190.234C191.519 191.145 190.836 193.309 190.836 195.929V200.03H183.432C176.256 200.03 176.028 200.144 176.028 202.991C176.028 206.523 173.408 206.181 172.838 202.536C172.155 198.321 169.193 199.574 169.193 204.017C169.193 206.75 169.763 208.003 170.902 208.003C173.294 208.003 173.066 212.56 170.674 214.382C168.738 215.863 168.738 215.863 170.674 215.977C171.699 215.977 172.611 215.407 172.611 214.838C172.611 213.243 175.8 213.471 176.369 215.066C176.597 215.977 177.281 216.091 177.85 215.521C178.42 214.952 178.306 214.268 177.509 214.04C175.8 213.471 175.458 208.003 177.053 208.003C177.622 208.003 178.306 206.864 178.534 205.383C178.989 202.422 183.887 201.055 184.115 203.903C184.229 204.928 184.343 206.409 184.457 207.092C184.457 207.889 185.254 208.573 186.052 208.459C186.735 208.345 189.241 208.231 191.405 208.117C196.531 208.003 197.101 204.586 191.975 204.586C190.152 204.586 188.557 204.017 188.557 203.447C188.557 202.764 189.81 202.308 191.405 202.308C194.025 202.308 194.253 201.966 194.253 196.499C194.253 191.601 194.595 190.803 196.303 191.145C197.556 191.373 198.24 192.626 198.24 194.79C198.24 196.613 198.923 198.321 199.72 198.549C200.632 198.891 201.087 197.752 201.087 195.018V190.917H206.327C214.528 190.917 212.136 188.184 203.593 187.728C197.442 187.386 196.531 187.045 196.531 185.222C196.531 183.969 196.075 182.944 195.392 182.944C194.822 182.944 194.253 182.147 194.253 181.235C194.253 178.957 196.075 179.071 196.987 181.349C197.328 182.26 198.24 182.716 198.923 182.26C199.948 181.691 199.72 181.007 198.467 180.096C194.708 177.362 196.303 176.109 203.935 176.109C208.149 176.109 211.339 175.654 211.339 174.97C211.339 174.287 207.124 173.831 201.087 173.831C195.05 173.831 190.836 174.287 190.836 174.97Z" fill="#1068F0"/>
<path d="M214.755 183.513V193.195H224.437H234.119V183.513V173.831H224.437H214.755V183.513ZM230.702 183.513V190.917H223.867H217.033V183.513V176.109H223.867H230.702V183.513Z" fill="#022E70"/>
<path d="M220.451 181.691C220.451 182.944 220.109 184.652 219.767 185.678C219.198 187.158 219.881 187.5 223.071 187.5C226.374 187.5 227.171 187.044 227.741 184.652C228.766 180.666 227.855 179.527 223.754 179.527C221.248 179.527 220.451 180.096 220.451 181.691Z" fill="#1068F0"/>
<path d="M202.453 180.78C202.681 181.463 203.25 181.919 203.706 181.919C204.162 181.805 206.098 181.805 207.921 181.805C209.857 181.805 211.338 181.235 211.338 180.666C211.338 179.982 209.288 179.527 206.668 179.527C203.82 179.527 202.225 179.982 202.453 180.78Z" fill="#1068F0"/>
<path d="M199.605 183.627C198.694 184.539 199.719 186.361 201.2 186.361C201.769 186.361 202.225 185.564 202.225 184.652C202.225 182.944 200.858 182.374 199.605 183.627Z" fill="#022E70"/>
<path d="M205.188 183.741C203.935 184.994 204.504 186.361 206.213 186.361C207.124 186.361 207.921 185.905 207.921 185.336C207.921 183.855 206.099 182.83 205.188 183.741Z" fill="#1068F0"/>
<path d="M202.91 192.968C202.113 194.335 206.441 197.752 209.061 197.752C210.77 197.752 211.339 196.954 211.339 194.904C211.339 191.943 208.605 190.917 207.466 193.423C206.897 194.562 206.669 194.562 206.099 193.423C205.416 191.829 203.821 191.601 202.91 192.968Z" fill="#022E70"/>
<path d="M172.61 197.752C172.61 198.321 173.408 198.891 174.319 198.891C175.23 198.891 176.028 198.321 176.028 197.752C176.028 197.068 175.23 196.613 174.319 196.613C173.408 196.613 172.61 197.068 172.61 197.752Z" fill="#022E70"/>
<path d="M179.444 197.752C179.444 198.321 180.242 198.891 181.153 198.891C182.064 198.891 182.862 198.321 182.862 197.752C182.862 197.068 182.064 196.613 181.153 196.613C180.242 196.613 179.444 197.068 179.444 197.752Z" fill="#022E70"/>
<path d="M186.28 197.752C186.28 198.321 186.736 198.891 187.305 198.891C187.989 198.891 188.786 198.321 189.128 197.752C189.47 197.068 189.014 196.613 188.103 196.613C187.078 196.613 186.28 197.068 186.28 197.752Z" fill="#022E70"/>
<path d="M214.529 201.169C214.871 204.7 215.44 205.725 217.149 205.725C218.288 205.725 219.313 205.156 219.313 204.586C219.313 203.903 218.857 203.447 218.174 203.447C217.604 203.447 217.035 201.852 217.035 200.03C217.035 197.98 216.465 196.613 215.554 196.613C214.529 196.613 214.301 197.98 214.529 201.169Z" fill="#1068F0"/>
<path d="M229.564 198.321C229.564 199.233 229.108 200.03 228.424 200.03C227.855 200.03 227.285 200.827 227.285 201.739C227.285 202.65 227.855 203.447 228.424 203.447C229.108 203.447 229.564 204.244 229.564 205.156C229.564 206.067 229.108 206.864 228.424 206.864C227.855 206.864 227.285 206.295 227.285 205.725C227.285 204.017 225.121 204.358 223.185 206.181C222.273 207.092 221.59 208.345 221.59 209.029C221.59 209.712 220.793 210.282 219.881 210.282C218.97 210.282 218.173 210.737 218.173 211.421C218.173 213.015 221.248 212.787 222.046 211.079C222.387 210.168 222.957 210.282 223.868 211.648C225.349 214.154 227.285 214.268 227.285 211.99C227.285 211.079 227.855 210.282 228.424 210.282C229.108 210.282 229.564 210.737 229.564 211.421C229.564 211.99 230.361 212.56 231.272 212.56C232.525 212.56 232.867 210.965 232.639 204.586C232.525 199.119 231.956 196.613 231.044 196.613C230.247 196.613 229.564 197.41 229.564 198.321Z" fill="#1068F0"/>
<path d="M222.729 198.891C222.729 199.46 223.527 200.03 224.438 200.03C225.349 200.03 226.147 199.46 226.147 198.891C226.147 198.207 225.349 197.752 224.438 197.752C223.527 197.752 222.729 198.207 222.729 198.891Z" fill="#022E70"/>
<path d="M207.922 200.599C207.922 201.511 208.491 202.308 209.061 202.308C209.744 202.308 210.2 201.511 210.2 200.599C210.2 199.688 209.744 198.891 209.061 198.891C208.491 198.891 207.922 199.688 207.922 200.599Z" fill="#022E70"/>
<path d="M196.531 201.738C196.531 202.65 197.329 203.447 198.24 203.447C199.151 203.447 199.948 203.903 199.948 204.586C199.948 205.156 200.86 205.725 202.113 205.725C204.277 205.725 205.644 208.573 205.644 213.357C205.644 214.952 206.327 215.977 207.352 215.977C208.264 215.977 209.061 215.407 209.061 214.838C209.061 214.154 210.883 213.699 213.048 213.699C215.212 213.699 217.034 213.129 217.034 212.56C217.034 211.876 215.212 211.421 213.048 211.421C210.883 211.421 209.061 210.851 209.061 210.281C209.061 209.598 209.858 209.142 210.77 209.142C211.681 209.142 212.478 208.345 212.478 207.434C212.478 206.523 211.681 205.725 210.77 205.725C209.858 205.725 209.061 205.156 209.061 204.586C209.061 203.903 208.264 203.447 207.352 203.447C206.327 203.447 205.302 202.65 204.96 201.738C204.505 200.713 202.796 200.03 200.404 200.03C197.67 200.03 196.531 200.599 196.531 201.738Z" fill="#0657CD"/>
<path d="M220.451 202.422C220.451 202.991 221.021 203.219 221.59 202.878C222.274 202.536 222.729 201.966 222.729 201.625C222.729 201.397 222.274 201.169 221.59 201.169C221.021 201.169 220.451 201.739 220.451 202.422Z" fill="#022E70"/>
<path d="M179.444 206.864C179.444 207.434 180.242 208.003 181.153 208.003C182.064 208.003 182.862 207.434 182.862 206.864C182.862 206.181 182.064 205.725 181.153 205.725C180.242 205.725 179.444 206.181 179.444 206.864Z" fill="#022E70"/>
<path d="M196.531 209.598C196.531 211.535 197.101 212.56 198.354 212.56C199.493 212.56 199.948 211.762 199.721 210.054C199.151 206.409 196.531 206.067 196.531 209.598Z" fill="#022E70"/>
<path d="M181.724 213.699C181.724 215.521 182.521 215.977 185.71 215.977C188.9 215.977 189.697 215.521 189.697 213.699C189.697 211.193 187.989 210.623 186.963 212.787C186.394 213.926 186.166 213.926 185.596 212.787C184.571 210.623 181.724 211.193 181.724 213.699Z" fill="#1068F0"/>
<path d="M194.253 214.838C194.253 215.407 195.278 215.977 196.531 215.977C197.784 215.977 199.151 216.774 199.493 217.685C200.518 220.419 202.226 219.622 202.226 216.546C202.226 214.04 201.771 213.699 198.24 213.699C196.075 213.699 194.253 214.154 194.253 214.838Z" fill="#022E70"/>
<path d="M217.034 216.546C217.034 217.458 217.604 218.255 218.287 218.255C220.11 218.255 222.73 221.217 222.73 223.267C222.73 224.292 222.274 225.089 221.59 225.089C221.021 225.089 220.451 225.545 220.451 226.228C220.451 226.798 222.274 227.367 224.438 227.367C226.602 227.367 228.425 226.798 228.425 226.228C228.425 225.545 227.969 225.089 227.286 225.089C226.716 225.089 226.147 224.064 226.147 222.811C226.147 221.558 226.602 220.533 227.286 220.533C228.994 220.533 232.981 216.774 232.298 215.749C231.956 215.293 228.425 214.838 224.324 214.838C218.629 214.838 217.034 215.179 217.034 216.546Z" fill="#022E70"/>
<path d="M211.338 218.711C211.338 219.85 210.313 220.533 208.49 220.533C206.212 220.533 205.643 221.103 205.643 223.381C205.643 224.975 206.212 226.228 206.782 226.228C207.465 226.228 207.921 225.659 207.921 225.089C207.921 224.406 208.718 223.95 209.629 223.95C210.768 223.95 211.338 225.203 211.338 227.937C211.338 230.101 210.882 231.924 210.199 231.924C209.629 231.924 209.06 232.379 209.06 233.063C209.06 233.632 211.11 234.202 213.616 234.202C216.122 234.202 218.172 233.632 218.172 233.063C218.172 232.379 217.375 231.924 216.464 231.924C214.413 231.924 214.072 226.684 216.236 225.887C217.261 225.431 217.261 224.975 216.35 224.292C215.552 223.836 214.755 222.128 214.641 220.647C214.186 217.572 211.338 215.863 211.338 218.711Z" fill="#022E70"/>
<path d="M166.915 229.646V239.897H176.483C181.837 239.897 186.393 239.555 186.621 238.986C186.963 238.53 186.849 233.974 186.507 228.734L185.937 219.394H176.483H166.915V229.646ZM184.001 229.646V236.48H176.597H169.193V229.646V222.811H176.597H184.001V229.646Z" fill="#022E70"/>
<path d="M172.61 230.215C172.61 234.088 172.724 234.202 177.167 234.202C181.609 234.202 181.723 234.088 181.723 230.215C181.723 226.342 181.609 226.228 177.167 226.228C172.724 226.228 172.61 226.342 172.61 230.215Z" fill="#1068F0"/>
<path d="M190.836 225.089V230.785H194.823C197.556 230.785 198.809 231.354 198.809 232.493C198.809 233.405 198.24 234.202 197.556 234.202C195.962 234.202 193.114 237.05 193.114 238.644C193.114 239.328 193.684 239.897 194.253 239.897C194.937 239.897 195.392 239.1 195.392 238.189C195.392 237.277 195.962 236.48 196.531 236.48C197.215 236.48 198.012 237.277 198.354 238.189C198.809 239.214 200.518 239.897 202.91 239.897C205.644 239.897 206.783 239.328 206.783 238.189C206.783 237.05 205.53 236.48 202.796 236.48C200.632 236.48 198.809 235.91 198.809 235.341C198.809 234.658 199.379 234.202 199.948 234.202C201.543 234.202 201.315 231.126 199.721 230.329C198.582 229.76 198.582 229.532 199.721 228.962C200.404 228.62 201.088 227.823 201.088 227.14C201.088 225.659 198.126 222.811 196.645 222.811C194.595 222.811 195.278 226.001 197.443 226.57C198.582 226.912 198.126 227.14 196.303 227.254C193.456 227.367 193.114 227.026 193.114 223.381C193.114 221.217 192.658 219.394 191.975 219.394C191.405 219.394 190.836 221.9 190.836 225.089Z" fill="#1068F0"/>
<path d="M222.729 230.785C222.729 231.354 223.527 231.924 224.438 231.924C225.349 231.924 226.147 231.354 226.147 230.785C226.147 230.101 225.349 229.646 224.438 229.646C223.527 229.646 222.729 230.101 222.729 230.785Z" fill="#022E70"/>
<path d="M228.425 232.493C228.425 233.518 227.399 234.202 226.033 234.202C223.527 234.202 220.451 236.708 220.451 238.644C220.451 239.328 221.704 239.897 223.299 239.897C225.121 239.897 226.147 239.214 226.147 238.189C226.147 237.163 227.172 236.48 228.994 236.48C231.272 236.48 231.842 235.91 231.842 233.632C231.842 231.81 231.158 230.785 230.133 230.785C229.222 230.785 228.425 231.582 228.425 232.493Z" fill="#1068F0"/>
<path d="M212.479 238.189C212.479 239.214 213.048 239.897 213.731 239.669C214.415 239.442 214.984 238.758 214.984 238.189C214.984 237.619 214.415 236.936 213.731 236.708C213.048 236.48 212.479 237.163 212.479 238.189Z" fill="#022E70"/>
<circle cx="197.239" cy="21.3089" r="4.91744" fill="#1068F0"/>
</g>
<path d="M310.916 153.303C300.055 159.79 300.508 158.583 300.508 183.623C300.508 211.529 300.96 212.736 318.458 222.994C329.47 229.329 330.827 230.687 330.375 234.156C330.224 236.268 330.526 238.983 331.129 240.039C332.637 242.302 339.124 242.453 340.632 240.19C341.236 239.285 343.649 238.983 346.515 239.436C350.588 240.19 353.152 239.436 359.186 235.665L366.879 230.988V207.004C366.879 188.752 366.276 181.813 364.617 178.645C363.108 175.478 356.169 170.801 340.934 162.052C329.168 155.415 318.76 149.834 317.855 149.985C317.1 149.985 313.933 151.644 310.916 153.303ZM315.592 155.868C310.463 159.941 306.089 159.79 310.916 155.868C312.877 154.208 315.592 152.851 316.95 152.851C318.76 152.851 318.458 153.605 315.592 155.868ZM341.99 165.22C352.398 171.254 360.845 176.684 360.845 177.288C360.845 177.891 358.884 179.4 356.471 180.606C352.247 182.869 351.644 182.718 335.805 173.366C326.755 167.935 318.006 162.656 316.346 161.449C313.48 159.337 313.631 159.186 317.855 156.924C320.419 155.566 322.531 154.51 322.833 154.359C322.983 154.359 331.582 159.337 341.99 165.22ZM321.324 167.634C329.319 172.461 338.671 178.042 342.141 179.852C352.398 185.584 353.303 188.45 353.303 214.395C353.303 228.575 352.7 237.475 351.795 238.078C350.89 238.681 348.476 238.078 346.515 236.72C341.688 233.553 340.18 233.704 339.275 237.475C337.766 242.905 332.939 240.492 332.939 234.307C332.939 229.48 332.185 228.726 320.419 221.787C313.631 217.865 306.843 212.887 305.485 210.775C303.524 207.758 303.223 203.082 303.374 184.227C303.675 162.957 304.128 158.885 305.938 158.885C306.391 158.885 313.179 162.807 321.324 167.634ZM364.466 182.416C365.672 185.433 365.974 184.981 359.79 187.998C355.415 190.26 354.962 190.26 354.057 187.847C353.605 186.489 353.756 185.132 354.51 184.83C355.264 184.679 357.225 183.472 358.734 182.266C362.505 179.4 363.41 179.55 364.466 182.416ZM365.371 191.316C365.371 191.618 363.108 193.126 360.544 194.333L355.566 196.747L359.337 193.73C362.957 190.713 365.371 189.808 365.371 191.316ZM365.371 226.765C365.371 227.519 363.41 229.178 360.845 230.536C355.113 233.402 354.812 231.441 360.544 227.971C365.672 224.955 365.371 224.955 365.371 226.765Z" fill="#8791A4"/>
<path d="M324.341 184.076C323.889 189.506 323.587 189.808 318.609 189.808C314.084 189.808 313.179 190.411 312.877 193.579C312.123 198.858 315.29 208.663 317.855 208.663C319.061 208.663 321.475 210.323 323.436 212.133C328.263 217.111 338.37 222.692 339.878 221.184C340.632 220.429 341.537 217.262 342.141 213.943C342.593 210.624 343.347 207.306 343.8 206.702C344.102 206.099 342.141 203.233 339.124 200.518C334.9 196.747 333.693 194.484 333.693 190.411C333.693 184.679 330.224 178.494 326.905 178.494C325.548 178.494 324.643 180.606 324.341 184.076ZM330.526 200.216V215.15L326.905 211.68C324.794 209.719 323.134 207.306 323.134 206.099C323.134 203.535 320.117 203.535 320.117 205.948C319.967 210.323 315.592 201.574 315.592 197.048C315.592 191.92 318.006 190.26 319.665 194.484C321.173 198.406 327.66 191.015 327.66 185.433C327.66 181.813 328.112 181.361 329.168 183.02C329.922 184.227 330.526 191.92 330.526 200.216ZM339.878 205.043C341.839 207.457 341.688 207.457 337.163 205.043C334.448 203.686 332.185 201.875 332.185 200.97C332.185 199.009 337.012 201.574 339.878 205.043ZM338.822 210.021C338.52 210.474 337.012 209.568 335.504 208.06C333.09 205.496 333.09 205.345 336.258 207.306C338.068 208.362 339.275 209.568 338.822 210.021ZM338.822 214.546C338.52 214.999 337.012 214.094 335.504 212.585C333.09 210.021 333.09 209.87 336.258 211.831C338.068 212.887 339.275 214.094 338.822 214.546ZM336.861 217.262C338.822 219.675 338.671 219.826 336.409 217.865C334.9 216.809 333.693 215.602 333.693 215.301C333.693 214.094 334.9 214.848 336.861 217.262Z" fill="#80ACED"/>
<defs>
<filter id="filter0_d" x="6.55664" y="131.132" width="65.0092" height="32.2263" filterUnits="userSpaceOnUse" color-interpolation-filters="sRGB">
<feFlood flood-opacity="0" result="BackgroundImageFix"/>
<feColorMatrix in="SourceAlpha" type="matrix" values="0 0 0 0 0 0 0 0 0 0 0 0 0 0 0 0 0 0 127 0"/>
<feOffset dy="3"/>
<feGaussianBlur stdDeviation="1.5"/>
<feColorMatrix type="matrix" values="0 0 0 0 0 0 0 0 0 0 0 0 0 0 0 0 0 0 0.1 0"/>
<feBlend mode="normal" in2="BackgroundImageFix" result="effect1_dropShadow"/>
<feBlend mode="normal" in="SourceGraphic" in2="effect1_dropShadow" result="shape"/>
</filter>
<filter id="filter1_d" x="50.8135" y="172.93" width="65.0092" height="33.0459" filterUnits="userSpaceOnUse" color-interpolation-filters="sRGB">
<feFlood flood-opacity="0" result="BackgroundImageFix"/>
<feColorMatrix in="SourceAlpha" type="matrix" values="0 0 0 0 0 0 0 0 0 0 0 0 0 0 0 0 0 0 127 0"/>
<feOffset dy="3"/>
<feGaussianBlur stdDeviation="1.5"/>
<feColorMatrix type="matrix" values="0 0 0 0 0 0 0 0 0 0 0 0 0 0 0 0 0 0 0.1 0"/>
<feBlend mode="normal" in2="BackgroundImageFix" result="effect1_dropShadow"/>
<feBlend mode="normal" in="SourceGraphic" in2="effect1_dropShadow" result="shape"/>
</filter>
<filter id="filter2_d" x="145.884" y="172.93" width="65.8288" height="33.0459" filterUnits="userSpaceOnUse" color-interpolation-filters="sRGB">
<feFlood flood-opacity="0" result="BackgroundImageFix"/>
<feColorMatrix in="SourceAlpha" type="matrix" values="0 0 0 0 0 0 0 0 0 0 0 0 0 0 0 0 0 0 127 0"/>
<feOffset dy="3"/>
<feGaussianBlur stdDeviation="1.5"/>
<feColorMatrix type="matrix" values="0 0 0 0 0 0 0 0 0 0 0 0 0 0 0 0 0 0 0.1 0"/>
<feBlend mode="normal" in2="BackgroundImageFix" result="effect1_dropShadow"/>
<feBlend mode="normal" in="SourceGraphic" in2="effect1_dropShadow" result="shape"/>
</filter>
<filter id="filter3_d" x="94.251" y="131.132" width="65.8288" height="32.2263" filterUnits="userSpaceOnUse" color-interpolation-filters="sRGB">
<feFlood flood-opacity="0" result="BackgroundImageFix"/>
<feColorMatrix in="SourceAlpha" type="matrix" values="0 0 0 0 0 0 0 0 0 0 0 0 0 0 0 0 0 0 127 0"/>
<feOffset dy="3"/>
<feGaussianBlur stdDeviation="1.5"/>
<feColorMatrix type="matrix" values="0 0 0 0 0 0 0 0 0 0 0 0 0 0 0 0 0 0 0.1 0"/>
<feBlend mode="normal" in2="BackgroundImageFix" result="effect1_dropShadow"/>
<feBlend mode="normal" in="SourceGraphic" in2="effect1_dropShadow" result="shape"/>
</filter>
<filter id="filter4_d" x="190.141" y="135.229" width="65.0092" height="32.2263" filterUnits="userSpaceOnUse" color-interpolation-filters="sRGB">
<feFlood flood-opacity="0" result="BackgroundImageFix"/>
<feColorMatrix in="SourceAlpha" type="matrix" values="0 0 0 0 0 0 0 0 0 0 0 0 0 0 0 0 0 0 127 0"/>
<feOffset dy="3"/>
<feGaussianBlur stdDeviation="1.5"/>
<feColorMatrix type="matrix" values="0 0 0 0 0 0 0 0 0 0 0 0 0 0 0 0 0 0 0.1 0"/>
<feBlend mode="normal" in2="BackgroundImageFix" result="effect1_dropShadow"/>
<feBlend mode="normal" in="SourceGraphic" in2="effect1_dropShadow" result="shape"/>
</filter>
<filter id="filter5_d" x="7.37598" y="45.0765" width="65.8288" height="32.2263" filterUnits="userSpaceOnUse" color-interpolation-filters="sRGB">
<feFlood flood-opacity="0" result="BackgroundImageFix"/>
<feColorMatrix in="SourceAlpha" type="matrix" values="0 0 0 0 0 0 0 0 0 0 0 0 0 0 0 0 0 0 127 0"/>
<feOffset dy="3"/>
<feGaussianBlur stdDeviation="1.5"/>
<feColorMatrix type="matrix" values="0 0 0 0 0 0 0 0 0 0 0 0 0 0 0 0 0 0 0.1 0"/>
<feBlend mode="normal" in2="BackgroundImageFix" result="effect1_dropShadow"/>
<feBlend mode="normal" in="SourceGraphic" in2="effect1_dropShadow" result="shape"/>
</filter>
<filter id="filter6_d" x="54.0918" y="82.7769" width="65.8288" height="33.0459" filterUnits="userSpaceOnUse" color-interpolation-filters="sRGB">
<feFlood flood-opacity="0" result="BackgroundImageFix"/>
<feColorMatrix in="SourceAlpha" type="matrix" values="0 0 0 0 0 0 0 0 0 0 0 0 0 0 0 0 0 0 127 0"/>
<feOffset dy="3"/>
<feGaussianBlur stdDeviation="1.5"/>
<feColorMatrix type="matrix" values="0 0 0 0 0 0 0 0 0 0 0 0 0 0 0 0 0 0 0.1 0"/>
<feBlend mode="normal" in2="BackgroundImageFix" result="effect1_dropShadow"/>
<feBlend mode="normal" in="SourceGraphic" in2="effect1_dropShadow" result="shape"/>
</filter>
<filter id="filter7_d" x="54.0918" y="0" width="65.8288" height="33.0459" filterUnits="userSpaceOnUse" color-interpolation-filters="sRGB">
<feFlood flood-opacity="0" result="BackgroundImageFix"/>
<feColorMatrix in="SourceAlpha" type="matrix" values="0 0 0 0 0 0 0 0 0 0 0 0 0 0 0 0 0 0 127 0"/>
<feOffset dy="3"/>
<feGaussianBlur stdDeviation="1.5"/>
<feColorMatrix type="matrix" values="0 0 0 0 0 0 0 0 0 0 0 0 0 0 0 0 0 0 0.1 0"/>
<feBlend mode="normal" in2="BackgroundImageFix" result="effect1_dropShadow"/>
<feBlend mode="normal" in="SourceGraphic" in2="effect1_dropShadow" result="shape"/>
</filter>
<filter id="filter8_d" x="149.162" y="0" width="65.8288" height="33.0459" filterUnits="userSpaceOnUse" color-interpolation-filters="sRGB">
<feFlood flood-opacity="0" result="BackgroundImageFix"/>
<feColorMatrix in="SourceAlpha" type="matrix" values="0 0 0 0 0 0 0 0 0 0 0 0 0 0 0 0 0 0 127 0"/>
<feOffset dy="3"/>
<feGaussianBlur stdDeviation="1.5"/>
<feColorMatrix type="matrix" values="0 0 0 0 0 0 0 0 0 0 0 0 0 0 0 0 0 0 0.1 0"/>
<feBlend mode="normal" in2="BackgroundImageFix" result="effect1_dropShadow"/>
<feBlend mode="normal" in="SourceGraphic" in2="effect1_dropShadow" result="shape"/>
</filter>
<filter id="filter9_d" x="245.872" y="0" width="65.8288" height="33.0459" filterUnits="userSpaceOnUse" color-interpolation-filters="sRGB">
<feFlood flood-opacity="0" result="BackgroundImageFix"/>
<feColorMatrix in="SourceAlpha" type="matrix" values="0 0 0 0 0 0 0 0 0 0 0 0 0 0 0 0 0 0 127 0"/>
<feOffset dy="3"/>
<feGaussianBlur stdDeviation="1.5"/>
<feColorMatrix type="matrix" values="0 0 0 0 0 0 0 0 0 0 0 0 0 0 0 0 0 0 0.1 0"/>
<feBlend mode="normal" in2="BackgroundImageFix" result="effect1_dropShadow"/>
<feBlend mode="normal" in="SourceGraphic" in2="effect1_dropShadow" result="shape"/>
</filter>
<filter id="filter10_d" x="147.523" y="82.7769" width="65.0092" height="33.0459" filterUnits="userSpaceOnUse" color-interpolation-filters="sRGB">
<feFlood flood-opacity="0" result="BackgroundImageFix"/>
<feColorMatrix in="SourceAlpha" type="matrix" values="0 0 0 0 0 0 0 0 0 0 0 0 0 0 0 0 0 0 127 0"/>
<feOffset dy="3"/>
<feGaussianBlur stdDeviation="1.5"/>
<feColorMatrix type="matrix" values="0 0 0 0 0 0 0 0 0 0 0 0 0 0 0 0 0 0 0.1 0"/>
<feBlend mode="normal" in2="BackgroundImageFix" result="effect1_dropShadow"/>
<feBlend mode="normal" in="SourceGraphic" in2="effect1_dropShadow" result="shape"/>
</filter>
<filter id="filter11_d" x="95.8896" y="45.0765" width="65.0092" height="32.2263" filterUnits="userSpaceOnUse" color-interpolation-filters="sRGB">
<feFlood flood-opacity="0" result="BackgroundImageFix"/>
<feColorMatrix in="SourceAlpha" type="matrix" values="0 0 0 0 0 0 0 0 0 0 0 0 0 0 0 0 0 0 127 0"/>
<feOffset dy="3"/>
<feGaussianBlur stdDeviation="1.5"/>
<feColorMatrix type="matrix" values="0 0 0 0 0 0 0 0 0 0 0 0 0 0 0 0 0 0 0.1 0"/>
<feBlend mode="normal" in2="BackgroundImageFix" result="effect1_dropShadow"/>
<feBlend mode="normal" in="SourceGraphic" in2="effect1_dropShadow" result="shape"/>
</filter>
<filter id="filter12_d" x="189.321" y="45.0765" width="65.0092" height="32.2263" filterUnits="userSpaceOnUse" color-interpolation-filters="sRGB">
<feFlood flood-opacity="0" result="BackgroundImageFix"/>
<feColorMatrix in="SourceAlpha" type="matrix" values="0 0 0 0 0 0 0 0 0 0 0 0 0 0 0 0 0 0 127 0"/>
<feOffset dy="3"/>
<feGaussianBlur stdDeviation="1.5"/>
<feColorMatrix type="matrix" values="0 0 0 0 0 0 0 0 0 0 0 0 0 0 0 0 0 0 0.1 0"/>
<feBlend mode="normal" in2="BackgroundImageFix" result="effect1_dropShadow"/>
<feBlend mode="normal" in="SourceGraphic" in2="effect1_dropShadow" result="shape"/>
</filter>
<filter id="filter13_d" x="285.211" y="131.132" width="65.0092" height="32.2263" filterUnits="userSpaceOnUse" color-interpolation-filters="sRGB">
<feFlood flood-opacity="0" result="BackgroundImageFix"/>
<feColorMatrix in="SourceAlpha" type="matrix" values="0 0 0 0 0 0 0 0 0 0 0 0 0 0 0 0 0 0 127 0"/>
<feOffset dy="3"/>
<feGaussianBlur stdDeviation="1.5"/>
<feColorMatrix type="matrix" values="0 0 0 0 0 0 0 0 0 0 0 0 0 0 0 0 0 0 0.1 0"/>
<feBlend mode="normal" in2="BackgroundImageFix" result="effect1_dropShadow"/>
<feBlend mode="normal" in="SourceGraphic" in2="effect1_dropShadow" result="shape"/>
</filter>
<filter id="filter14_d" x="345.859" y="172.93" width="65.0092" height="33.0459" filterUnits="userSpaceOnUse" color-interpolation-filters="sRGB">
<feFlood flood-opacity="0" result="BackgroundImageFix"/>
<feColorMatrix in="SourceAlpha" type="matrix" values="0 0 0 0 0 0 0 0 0 0 0 0 0 0 0 0 0 0 127 0"/>
<feOffset dy="3"/>
<feGaussianBlur stdDeviation="1.5"/>
<feColorMatrix type="matrix" values="0 0 0 0 0 0 0 0 0 0 0 0 0 0 0 0 0 0 0.1 0"/>
<feBlend mode="normal" in2="BackgroundImageFix" result="effect1_dropShadow"/>
<feBlend mode="normal" in="SourceGraphic" in2="effect1_dropShadow" result="shape"/>
</filter>
<filter id="filter15_d" x="255.707" y="172.93" width="65.0092" height="33.0459" filterUnits="userSpaceOnUse" color-interpolation-filters="sRGB">
<feFlood flood-opacity="0" result="BackgroundImageFix"/>
<feColorMatrix in="SourceAlpha" type="matrix" values="0 0 0 0 0 0 0 0 0 0 0 0 0 0 0 0 0 0 127 0"/>
<feOffset dy="3"/>
<feGaussianBlur stdDeviation="1.5"/>
<feColorMatrix type="matrix" values="0 0 0 0 0 0 0 0 0 0 0 0 0 0 0 0 0 0 0.1 0"/>
<feBlend mode="normal" in2="BackgroundImageFix" result="effect1_dropShadow"/>
<feBlend mode="normal" in="SourceGraphic" in2="effect1_dropShadow" result="shape"/>
</filter>
<filter id="filter16_d" x="372.905" y="131.132" width="65.8288" height="32.2263" filterUnits="userSpaceOnUse" color-interpolation-filters="sRGB">
<feFlood flood-opacity="0" result="BackgroundImageFix"/>
<feColorMatrix in="SourceAlpha" type="matrix" values="0 0 0 0 0 0 0 0 0 0 0 0 0 0 0 0 0 0 127 0"/>
<feOffset dy="3"/>
<feGaussianBlur stdDeviation="1.5"/>
<feColorMatrix type="matrix" values="0 0 0 0 0 0 0 0 0 0 0 0 0 0 0 0 0 0 0.1 0"/>
<feBlend mode="normal" in2="BackgroundImageFix" result="effect1_dropShadow"/>
<feBlend mode="normal" in="SourceGraphic" in2="effect1_dropShadow" result="shape"/>
</filter>
<filter id="filter17_d" x="286.031" y="45.0765" width="65.8288" height="32.2263" filterUnits="userSpaceOnUse" color-interpolation-filters="sRGB">
<feFlood flood-opacity="0" result="BackgroundImageFix"/>
<feColorMatrix in="SourceAlpha" type="matrix" values="0 0 0 0 0 0 0 0 0 0 0 0 0 0 0 0 0 0 127 0"/>
<feOffset dy="3"/>
<feGaussianBlur stdDeviation="1.5"/>
<feColorMatrix type="matrix" values="0 0 0 0 0 0 0 0 0 0 0 0 0 0 0 0 0 0 0.1 0"/>
<feBlend mode="normal" in2="BackgroundImageFix" result="effect1_dropShadow"/>
<feBlend mode="normal" in="SourceGraphic" in2="effect1_dropShadow" result="shape"/>
</filter>
<filter id="filter18_d" x="332.746" y="82.7769" width="65.8288" height="33.0459" filterUnits="userSpaceOnUse" color-interpolation-filters="sRGB">
<feFlood flood-opacity="0" result="BackgroundImageFix"/>
<feColorMatrix in="SourceAlpha" type="matrix" values="0 0 0 0 0 0 0 0 0 0 0 0 0 0 0 0 0 0 127 0"/>
<feOffset dy="3"/>
<feGaussianBlur stdDeviation="1.5"/>
<feColorMatrix type="matrix" values="0 0 0 0 0 0 0 0 0 0 0 0 0 0 0 0 0 0 0.1 0"/>
<feBlend mode="normal" in2="BackgroundImageFix" result="effect1_dropShadow"/>
<feBlend mode="normal" in="SourceGraphic" in2="effect1_dropShadow" result="shape"/>
</filter>
<filter id="filter19_d" x="374.545" y="45.0765" width="65.0092" height="32.2263" filterUnits="userSpaceOnUse" color-interpolation-filters="sRGB">
<feFlood flood-opacity="0" result="BackgroundImageFix"/>
<feColorMatrix in="SourceAlpha" type="matrix" values="0 0 0 0 0 0 0 0 0 0 0 0 0 0 0 0 0 0 127 0"/>
<feOffset dy="3"/>
<feGaussianBlur stdDeviation="1.5"/>
<feColorMatrix type="matrix" values="0 0 0 0 0 0 0 0 0 0 0 0 0 0 0 0 0 0 0.1 0"/>
<feBlend mode="normal" in2="BackgroundImageFix" result="effect1_dropShadow"/>
<feBlend mode="normal" in="SourceGraphic" in2="effect1_dropShadow" result="shape"/>
</filter>
<filter id="filter20_d" x="285.211" y="219.645" width="65.0092" height="32.2263" filterUnits="userSpaceOnUse" color-interpolation-filters="sRGB">
<feFlood flood-opacity="0" result="BackgroundImageFix"/>
<feColorMatrix in="SourceAlpha" type="matrix" values="0 0 0 0 0 0 0 0 0 0 0 0 0 0 0 0 0 0 127 0"/>
<feOffset dy="3"/>
<feGaussianBlur stdDeviation="1.5"/>
<feColorMatrix type="matrix" values="0 0 0 0 0 0 0 0 0 0 0 0 0 0 0 0 0 0 0.1 0"/>
<feBlend mode="normal" in2="BackgroundImageFix" result="effect1_dropShadow"/>
<feBlend mode="normal" in="SourceGraphic" in2="effect1_dropShadow" result="shape"/>
</filter>
<filter id="filter21_d" x="329.468" y="261.444" width="65.0092" height="33.0459" filterUnits="userSpaceOnUse" color-interpolation-filters="sRGB">
<feFlood flood-opacity="0" result="BackgroundImageFix"/>
<feColorMatrix in="SourceAlpha" type="matrix" values="0 0 0 0 0 0 0 0 0 0 0 0 0 0 0 0 0 0 127 0"/>
<feOffset dy="3"/>
<feGaussianBlur stdDeviation="1.5"/>
<feColorMatrix type="matrix" values="0 0 0 0 0 0 0 0 0 0 0 0 0 0 0 0 0 0 0.1 0"/>
<feBlend mode="normal" in2="BackgroundImageFix" result="effect1_dropShadow"/>
<feBlend mode="normal" in="SourceGraphic" in2="effect1_dropShadow" result="shape"/>
</filter>
<filter id="filter22_d" x="372.905" y="219.645" width="65.8288" height="32.2263" filterUnits="userSpaceOnUse" color-interpolation-filters="sRGB">
<feFlood flood-opacity="0" result="BackgroundImageFix"/>
<feColorMatrix in="SourceAlpha" type="matrix" values="0 0 0 0 0 0 0 0 0 0 0 0 0 0 0 0 0 0 127 0"/>
<feOffset dy="3"/>
<feGaussianBlur stdDeviation="1.5"/>
<feColorMatrix type="matrix" values="0 0 0 0 0 0 0 0 0 0 0 0 0 0 0 0 0 0 0.1 0"/>
<feBlend mode="normal" in2="BackgroundImageFix" result="effect1_dropShadow"/>
<feBlend mode="normal" in="SourceGraphic" in2="effect1_dropShadow" result="shape"/>
</filter>
<filter id="filter23_d" x="0" y="261.444" width="65.0092" height="33.0459" filterUnits="userSpaceOnUse" color-interpolation-filters="sRGB">
<feFlood flood-opacity="0" result="BackgroundImageFix"/>
<feColorMatrix in="SourceAlpha" type="matrix" values="0 0 0 0 0 0 0 0 0 0 0 0 0 0 0 0 0 0 127 0"/>
<feOffset dy="3"/>
<feGaussianBlur stdDeviation="1.5"/>
<feColorMatrix type="matrix" values="0 0 0 0 0 0 0 0 0 0 0 0 0 0 0 0 0 0 0.1 0"/>
<feBlend mode="normal" in2="BackgroundImageFix" result="effect1_dropShadow"/>
<feBlend mode="normal" in="SourceGraphic" in2="effect1_dropShadow" result="shape"/>
</filter>
<filter id="filter24_d" x="43.4375" y="219.645" width="65.8288" height="32.2263" filterUnits="userSpaceOnUse" color-interpolation-filters="sRGB">
<feFlood flood-opacity="0" result="BackgroundImageFix"/>
<feColorMatrix in="SourceAlpha" type="matrix" values="0 0 0 0 0 0 0 0 0 0 0 0 0 0 0 0 0 0 127 0"/>
<feOffset dy="3"/>
<feGaussianBlur stdDeviation="1.5"/>
<feColorMatrix type="matrix" values="0 0 0 0 0 0 0 0 0 0 0 0 0 0 0 0 0 0 0.1 0"/>
<feBlend mode="normal" in2="BackgroundImageFix" result="effect1_dropShadow"/>
<feBlend mode="normal" in="SourceGraphic" in2="effect1_dropShadow" result="shape"/>
</filter>
<filter id="filter25_d" x="83.8076" y="1.39142" width="230.96" height="344.061" filterUnits="userSpaceOnUse" color-interpolation-filters="sRGB">
<feFlood flood-opacity="0" result="BackgroundImageFix"/>
<feColorMatrix in="SourceAlpha" type="matrix" values="0 0 0 0 0 0 0 0 0 0 0 0 0 0 0 0 0 0 127 0"/>
<feOffset dy="5"/>
<feGaussianBlur stdDeviation="10"/>
<feColorMatrix type="matrix" values="0 0 0 0 0 0 0 0 0 0 0 0 0 0 0 0 0 0 0.15 0"/>
<feBlend mode="normal" in2="BackgroundImageFix" result="effect1_dropShadow"/>
<feBlend mode="normal" in="SourceGraphic" in2="effect1_dropShadow" result="shape"/>
</filter>
</defs>
</svg>
