<svg width="23" height="19" viewBox="0 0 23 19" fill="none" xmlns="http://www.w3.org/2000/svg">
<path d="M20.6191 4.70312C20.6491 4.82292 20.6641 5.01758 20.6641 5.28711C20.6641 6.87435 20.3646 8.46159 19.7656 10.0488C19.1667 11.6061 18.3132 13.0436 17.2051 14.3613C16.127 15.6491 14.7194 16.6973 12.9824 17.5059C11.2454 18.3145 9.32878 18.7188 7.23242 18.7188C4.59701 18.7188 2.1862 18.015 0 16.6074C0.329427 16.6374 0.703776 16.6523 1.12305 16.6523C3.30924 16.6523 5.27083 15.9785 7.00781 14.6309C5.95964 14.6309 5.03125 14.3314 4.22266 13.7324C3.44401 13.1035 2.90495 12.3249 2.60547 11.3965C2.90495 11.4264 3.18945 11.4414 3.45898 11.4414C3.87826 11.4414 4.29753 11.3965 4.7168 11.3066C3.99805 11.1569 3.35417 10.8574 2.78516 10.4082C2.21615 9.95898 1.76693 9.41992 1.4375 8.79102C1.10807 8.13216 0.943359 7.42839 0.943359 6.67969V6.58984C1.60221 6.97917 2.30599 7.1888 3.05469 7.21875C1.64714 6.26042 0.943359 4.94271 0.943359 3.26562C0.943359 2.42708 1.16797 1.63346 1.61719 0.884766C2.78516 2.35221 4.20768 3.52018 5.88477 4.38867C7.5918 5.25716 9.40365 5.73633 11.3203 5.82617C11.2604 5.4668 11.2305 5.10742 11.2305 4.74805C11.2305 3.46029 11.6797 2.35221 12.5781 1.42383C13.5065 0.495443 14.6146 0.03125 15.9023 0.03125C17.2799 0.03125 18.4329 0.525391 19.3613 1.51367C20.4395 1.30404 21.4427 0.929688 22.3711 0.390625C22.0117 1.4987 21.3229 2.36719 20.3047 2.99609C21.2031 2.8763 22.1016 2.62174 23 2.23242C22.3411 3.19076 21.5475 4.01432 20.6191 4.70312Z" fill="#0657CD"/>
</svg>
