<svg width="115" height="115" viewBox="0 0 115 115" fill="none" xmlns="http://www.w3.org/2000/svg">
<circle cx="57.5" cy="57.5" r="57.5" fill="#D8E8FF"/>
<path d="M64.8208 81.5111C62.1752 83.0443 59.5379 84.5774 56.8923 86.1106C56.5168 86.3252 56.1412 86.5475 55.7657 86.7622C56.6086 86.7622 57.4515 86.7622 58.2944 86.7622C55.582 85.1907 52.8697 83.6115 50.1573 82.0401C49.8151 81.8408 49.473 81.6491 49.1391 81.4498C48.4631 81.0512 47.7955 80.6372 47.1445 80.208C46.8357 80.0086 46.5352 79.794 46.2348 79.587C45.8426 79.3187 46.7272 79.9397 46.3433 79.6637C46.2765 79.6177 46.2098 79.5717 46.143 79.518C45.9594 79.3877 45.7841 79.2574 45.6089 79.1194C44.3654 78.1919 43.1886 77.1953 42.0703 76.1374C41.5111 75.6085 40.9603 75.0566 40.4345 74.497C40.1758 74.221 39.9254 73.9527 39.675 73.6691C39.5582 73.5387 39.4414 73.4008 39.3245 73.2704C39.2577 73.1938 39.1993 73.1248 39.1326 73.0481C38.8655 72.7338 39.4998 73.4927 39.2244 73.1554C37.0628 70.5338 35.2518 67.6898 33.858 64.6541C33.9415 64.8381 34.025 65.0221 34.1084 65.2061C32.6813 62.0784 31.7048 58.7975 31.2041 55.4475C31.2375 55.6545 31.2625 55.8538 31.2959 56.0608C30.8703 53.1248 30.912 50.1888 30.912 47.2375C30.912 43.8569 30.912 40.4763 30.912 37.088C30.912 36.2371 30.912 35.3862 30.912 34.5353C30.0774 35.3019 29.2428 36.0685 28.4083 36.8351C37.5803 36.1528 46.5102 33.8377 54.7057 29.9972C55.9159 29.4299 57.101 28.8167 58.2944 28.2187C57.4515 28.2187 56.6086 28.2187 55.7657 28.2187C58.8202 29.7596 61.8998 31.2007 65.1296 32.4043C69.2357 33.9451 73.5087 35.1026 77.8652 35.8692C80.4357 36.3215 83.0479 36.6434 85.6602 36.8427C84.8256 36.0762 83.991 35.3096 83.1564 34.543C83.1564 36.8197 83.1564 39.0965 83.1564 41.3655C83.1564 44.3475 83.1564 47.3295 83.1564 50.3191C83.1564 52.2432 83.0563 54.152 82.7725 56.0608C82.8059 55.8538 82.8309 55.6545 82.8643 55.4475C82.3636 58.8051 81.3871 62.0861 79.96 65.2061C80.0435 65.0221 80.1269 64.8381 80.2104 64.6541C78.9335 67.4368 77.3061 70.0815 75.3615 72.5192C75.253 72.6572 75.1445 72.7952 75.0277 72.9255C74.9692 73.0021 74.9025 73.0788 74.8441 73.1478C74.6104 73.4314 75.0026 72.9638 75.011 72.9485C74.7606 73.2704 74.4685 73.5771 74.1931 73.876C73.6756 74.4433 73.1499 75.0029 72.599 75.5395C71.464 76.6587 70.2622 77.7089 68.9937 78.6978C68.6432 78.9738 68.2843 79.2344 67.9254 79.5027C67.842 79.564 67.7585 79.6177 67.675 79.679C67.5248 79.7863 67.6083 79.725 67.9338 79.495C67.867 79.541 67.8002 79.587 67.7335 79.633C67.5666 79.748 67.3996 79.863 67.2244 79.978C66.4399 80.5299 65.6387 81.0359 64.8208 81.5111C63.7192 82.1551 63.1683 83.5886 63.9195 84.6541C64.6288 85.6736 66.1645 86.1719 67.3412 85.482C72.2318 82.638 76.4297 78.9738 79.8265 74.6656C83.0312 70.5951 85.4014 65.919 86.7534 61.0512C87.7633 57.4253 88.1555 53.7151 88.1555 49.9818C88.1555 47.1838 88.1555 44.3858 88.1555 41.5955C88.1555 39.2881 88.1806 36.973 88.1555 34.658C88.1555 34.6197 88.1555 34.5813 88.1555 34.543C88.1555 33.2245 87.0038 32.3429 85.6518 32.2433C84.5084 32.1589 83.3651 32.044 82.2217 31.906C82.447 31.9366 82.664 31.9596 82.8894 31.9903C76.9555 31.2544 71.1469 29.7979 65.6303 27.6591C65.8306 27.7358 66.0309 27.8125 66.2312 27.8891C63.7692 26.9309 61.399 25.8194 59.0539 24.6312C58.8035 24.5008 58.5531 24.3629 58.2944 24.2479C57.4265 23.8493 56.5585 23.8646 55.7072 24.2785C55.5737 24.3399 55.4485 24.4089 55.315 24.4779C54.4888 24.8918 53.6709 25.3134 52.8446 25.712C51.2089 26.5016 49.5314 27.2222 47.8372 27.8891C48.0375 27.8125 48.2378 27.7358 48.4381 27.6591C42.9215 29.7979 37.1129 31.2544 31.1791 31.9903C31.4044 31.9596 31.6214 31.9366 31.8467 31.906C30.7033 32.044 29.56 32.1589 28.4166 32.2433C27.0646 32.3429 25.9129 33.2168 25.9129 34.543C25.9129 37.456 25.9129 40.3613 25.9129 43.2743C25.9129 46.3789 25.8044 49.5066 25.9546 52.6035C26.2884 59.2881 28.3832 65.8653 32.0804 71.63C35.6858 77.2413 40.7516 82.0017 46.7439 85.482C49.6566 87.1761 52.5776 88.8703 55.4902 90.5567C55.582 90.6104 55.6822 90.6641 55.774 90.7254C56.5001 91.147 57.5683 91.147 58.3028 90.7254C60.9484 89.1922 63.5856 87.6591 66.2312 86.1259C66.6068 85.9113 66.9824 85.689 67.3579 85.4743C68.4679 84.8304 69.0104 83.3969 68.2593 82.3314C67.5332 81.3195 66.0059 80.8212 64.8208 81.5111Z" fill="#0657CD"/>
<path d="M41.661 56.4135C44.3484 58.8819 47.0441 61.3579 49.7314 63.8263C50.1153 64.1789 50.4992 64.5315 50.8831 64.8842C51.8429 65.7657 53.4619 65.7657 54.4217 64.8842C56.4581 63.0137 58.4944 61.1433 60.5308 59.2728C63.7523 56.3138 66.9654 53.3625 70.1868 50.4035C70.9213 49.729 71.6557 49.0544 72.3901 48.3798C73.3165 47.5289 73.3833 45.9651 72.3901 45.1295C71.3886 44.2863 69.8363 44.2173 68.8515 45.1295C66.8152 46.9999 64.7788 48.8704 62.7424 50.7408C59.521 53.6998 56.3079 56.6511 53.0864 59.6101C52.352 60.2847 51.6175 60.9593 50.8831 61.6339C52.0599 61.6339 53.245 61.6339 54.4217 61.6339C51.7344 59.1655 49.0387 56.6895 46.3514 54.2211C45.9675 53.8685 45.5836 53.5158 45.1997 53.1632C44.2733 52.3123 42.5707 52.251 41.661 53.1632C40.743 54.0754 40.6762 55.5013 41.661 56.4135Z" fill="#1068F0"/>
</svg>
