<svg width="115" height="115" viewBox="0 0 115 115" fill="none" xmlns="http://www.w3.org/2000/svg">
<circle cx="57.5" cy="57.5" r="57.5" fill="#D8E8FF"/>
<mask id="path-2-inside-1" fill="white">
<path fill-rule="evenodd" clip-rule="evenodd" d="M36.5331 89.8751C43.4776 89.8751 49.1073 84.5026 49.1073 77.8753C49.1073 71.248 43.4776 65.8755 36.5331 65.8755C29.5886 65.8755 23.959 71.248 23.959 77.8753C23.959 84.5026 29.5886 89.8751 36.5331 89.8751ZM36.5331 87.2085C41.9344 87.2085 46.313 83.0299 46.313 77.8753C46.313 72.7207 41.9344 68.5421 36.5331 68.5421C31.1318 68.5421 26.7532 72.7207 26.7532 77.8753C26.7532 83.0299 31.1318 87.2085 36.5331 87.2085Z"/>
</mask>
<path d="M36.5331 99.8751C48.5548 99.8751 59.1073 90.4609 59.1073 77.8753H39.1073C39.1073 78.5443 38.4005 79.8751 36.5331 79.8751V99.8751ZM59.1073 77.8753C59.1073 65.2897 48.5548 55.8755 36.5331 55.8755V75.8755C38.4005 75.8755 39.1073 77.2063 39.1073 77.8753H59.1073ZM36.5331 55.8755C24.5115 55.8755 13.959 65.2897 13.959 77.8753H33.959C33.959 77.2063 34.6657 75.8755 36.5331 75.8755V55.8755ZM13.959 77.8753C13.959 90.4609 24.5115 99.8751 36.5331 99.8751V79.8751C34.6657 79.8751 33.959 78.5443 33.959 77.8753H13.959ZM36.5331 97.2085C47.0115 97.2085 56.313 88.9882 56.313 77.8753H36.313C36.313 77.7326 36.3461 77.5827 36.4022 77.4562C36.4545 77.3382 36.5124 77.2712 36.5447 77.2405C36.6076 77.1804 36.6249 77.2085 36.5331 77.2085V97.2085ZM56.313 77.8753C56.313 66.7624 47.0115 58.5421 36.5331 58.5421V78.5421C36.6249 78.5421 36.6076 78.5702 36.5447 78.5101C36.5124 78.4793 36.4545 78.4124 36.4022 78.2943C36.3461 78.1679 36.313 78.018 36.313 77.8753H56.313ZM36.5331 58.5421C26.0547 58.5421 16.7532 66.7624 16.7532 77.8753H36.7532C36.7532 78.018 36.7201 78.1679 36.6641 78.2943C36.6118 78.4124 36.5538 78.4793 36.5216 78.5101C36.4587 78.5702 36.4414 78.5421 36.5331 78.5421V58.5421ZM16.7532 77.8753C16.7532 88.9882 26.0547 97.2085 36.5331 97.2085V77.2085C36.4414 77.2085 36.4587 77.1804 36.5216 77.2405C36.5538 77.2712 36.6118 77.3382 36.6641 77.4562C36.7201 77.5827 36.7532 77.7326 36.7532 77.8753H16.7532Z" fill="#0657CD" mask="url(#path-2-inside-1)"/>
<mask id="path-4-inside-2" fill="white">
<path fill-rule="evenodd" clip-rule="evenodd" d="M37.9208 76.5422V71.209H35.1266V76.5422H29.5469V79.2089H35.1266V84.5337H37.9208V79.2089H43.5182V76.5422H37.9208Z"/>
</mask>
<path d="M37.9208 76.5422H27.9208V86.5422H37.9208V76.5422ZM37.9208 71.209H47.9208V61.209H37.9208V71.209ZM35.1266 71.209V61.209H25.1266V71.209H35.1266ZM35.1266 76.5422V86.5422H45.1266V76.5422H35.1266ZM29.5469 76.5422V66.5422H19.5469V76.5422H29.5469ZM29.5469 79.2089H19.5469V89.2089H29.5469V79.2089ZM35.1266 79.2089H45.1266V69.2089H35.1266V79.2089ZM35.1266 84.5337H25.1266V94.5337H35.1266V84.5337ZM37.9208 84.5337V94.5337H47.9208V84.5337H37.9208ZM37.9208 79.2089V69.2089H27.9208V79.2089H37.9208ZM43.5182 79.2089V89.2089H53.5182V79.2089H43.5182ZM43.5182 76.5422H53.5182V66.5422H43.5182V76.5422ZM47.9208 76.5422V71.209H27.9208V76.5422H47.9208ZM37.9208 61.209H35.1266V81.209H37.9208V61.209ZM25.1266 71.209V76.5422H45.1266V71.209H25.1266ZM35.1266 66.5422H29.5469V86.5422H35.1266V66.5422ZM19.5469 76.5422V79.2089H39.5469V76.5422H19.5469ZM29.5469 89.2089H35.1266V69.2089H29.5469V89.2089ZM25.1266 79.2089V84.5337H45.1266V79.2089H25.1266ZM35.1266 94.5337H37.9208V74.5337H35.1266V94.5337ZM47.9208 84.5337V79.2089H27.9208V84.5337H47.9208ZM37.9208 89.2089H43.5182V69.2089H37.9208V89.2089ZM53.5182 79.2089V76.5422H33.5182V79.2089H53.5182ZM43.5182 66.5422H37.9208V86.5422H43.5182V66.5422Z" fill="#1068F0" mask="url(#path-4-inside-2)"/>
<path d="M58.2244 23.9739C57.908 24.017 57.6124 24.1498 57.3759 24.355L41.5783 38.0495H32.0948C29.9835 38.035 28.0504 38.5883 26.5545 39.5738C25.0585 40.5593 23.959 42.0783 23.959 43.8608L23.9839 85.4209C23.9884 87.1487 25.0626 88.6182 26.5046 89.565C27.9465 90.5117 29.7955 91.0416 31.8203 91.0416H79.6122C81.9735 91.0416 84.1539 89.5856 85.0028 87.4215C86.3409 87.3185 87.644 86.9611 88.7463 86.2306C90.0965 85.336 91.0423 83.7582 91.0423 81.9198V43.8608C91.0423 42.3841 90.5876 40.9406 89.5948 39.8358C88.6021 38.7309 87.0475 38.0545 85.3023 38.0495L77.441 38.0257L73.0736 29.4993C72.9332 29.2214 72.7078 28.9906 72.427 28.8375C72.1463 28.6844 71.8235 28.6162 71.5013 28.642C71.2921 28.6594 71.0886 28.7161 70.9023 28.8087L65.8611 31.2856L59.6719 24.4979C59.4969 24.3006 59.2723 24.149 59.0191 24.0573C58.7659 23.9657 58.4924 23.937 58.2244 23.9739ZM58.3242 27.6655L62.9412 32.7384L38.7333 44.6467L58.3242 27.6655ZM70.9273 32.2383L77.6157 45.2898L44.3735 45.3136L70.9273 32.2383ZM79.0132 41.0742L85.3023 41.0981C86.2581 41.1011 86.7736 41.3907 87.174 41.8364C87.5745 42.2821 87.8479 42.9731 87.8479 43.8608V57.6506H71.5762C69.7215 57.6506 68.3568 59.2035 68.3568 60.8897V68.5587C68.3568 70.2449 69.7216 71.8215 71.5762 71.8215H87.8479V81.9198C87.8479 82.9011 87.5315 83.3277 86.9245 83.7299C86.5527 83.9763 86.004 84.1637 85.3772 84.2777V75.4655C85.3802 75.2635 85.3411 75.063 85.2621 74.8755C85.1832 74.6881 85.066 74.5175 84.9174 74.3737C84.7688 74.2298 84.5917 74.1156 84.3965 74.0376C84.2012 73.9597 83.9916 73.9195 83.78 73.9195C83.5683 73.9195 83.3587 73.9597 83.1634 74.0376C82.9682 74.1156 82.7911 74.2298 82.6425 74.3737C82.4939 74.5175 82.3767 74.6881 82.2978 74.8755C82.2188 75.063 82.1797 75.2635 82.1827 75.4655V85.4209C82.1827 87.0142 80.8916 87.9931 79.6122 87.9931H31.8203C30.3849 87.9931 29.1159 87.599 28.3014 87.0642C27.487 86.5295 27.1798 85.9394 27.1784 85.397L27.1534 47.4809C28.3267 48.062 29.7101 48.3624 31.1964 48.3621L80.2611 48.3383C80.9135 48.3382 81.2391 48.5586 81.5838 49.0052C81.9285 49.4518 82.1827 50.1748 82.1827 50.9105V53.3398C82.1797 53.5418 82.2188 53.7423 82.2978 53.9298C82.3767 54.1172 82.4939 54.2878 82.6425 54.4317C82.7911 54.5755 82.9682 54.6897 83.1634 54.7677C83.3587 54.8456 83.5683 54.8858 83.78 54.8858C83.9916 54.8858 84.2012 54.8456 84.3965 54.7677C84.5917 54.6897 84.7688 54.5755 84.9174 54.4317C85.066 54.2878 85.1832 54.1172 85.2621 53.9298C85.3411 53.7423 85.3802 53.5418 85.3772 53.3398V50.9105C85.3772 49.5979 84.9932 48.2818 84.1543 47.1951C83.489 46.3332 82.4503 45.6588 81.2344 45.4089L79.0132 41.0742ZM32.0699 41.0981C32.0782 41.0981 32.0865 41.0981 32.0948 41.0981H38.0844L33.2179 45.3136H31.1964C30.0319 45.3138 28.9858 45.0125 28.3014 44.5991C27.617 44.1858 27.3278 43.7092 27.2782 43.3368C27.2783 43.3289 27.2783 43.3209 27.2782 43.313C27.4426 42.8997 27.7833 42.4652 28.3763 42.0745C29.2424 41.504 30.5618 41.0876 32.0699 41.0981ZM71.5762 60.6992H87.8479V68.773H71.6011C71.6004 68.7755 71.5928 68.773 71.5762 68.773C71.5656 68.7565 71.5512 68.6998 71.5512 68.5587V60.8897C71.5512 60.6639 71.6426 60.6992 71.5762 60.6992ZM74.6708 61.8424C74.2738 61.884 73.9076 62.066 73.6443 62.3526C73.381 62.6391 73.2397 63.0094 73.2483 63.3904V66.0817C73.2453 66.2837 73.2844 66.4842 73.3633 66.6717C73.4422 66.8591 73.5594 67.0297 73.708 67.1736C73.8566 67.3174 74.0337 67.4316 74.229 67.5096C74.4243 67.5876 74.6338 67.6277 74.8455 67.6277C75.0572 67.6277 75.2667 67.5876 75.462 67.5096C75.6573 67.4316 75.8344 67.3174 75.983 67.1736C76.1316 67.0297 76.2488 66.8591 76.3277 66.6717C76.4066 66.4842 76.4457 66.2837 76.4427 66.0817V63.3904C76.4476 63.1735 76.4039 62.958 76.3145 62.7584C76.2251 62.5588 76.0921 62.3798 75.9243 62.2332C75.7566 62.0867 75.558 61.976 75.3418 61.9086C75.1256 61.8412 74.8969 61.8186 74.6708 61.8424Z" fill="#0657CD"/>
<path d="M65.885 32.7229L58.2982 25.1016L34.3398 46.8224H39.0065M65.885 32.7229L71.8746 29.2933L80.6593 46.8224H39.0065M65.885 32.7229L39.0065 46.8224" stroke="#1068F0" stroke-width="3.5"/>
</svg>
